solid OpenSCAD_Model
  facet normal 0 0 -1
    outer loop
      vertex 104.021 28.4982 0
      vertex 98.394 29.973 0
      vertex 98.98 31.1641 0
    endloop
  endfacet
  facet normal 0 0 -1
    outer loop
      vertex 81.831 5.1875 0
      vertex 106.752 5.1875 0
      vertex 106.752 0 0
    endloop
  endfacet
  facet normal 0 0 -1
    outer loop
      vertex 76.9439 41.1196 0
      vertex 82.5894 38.8014 0
      vertex 81.9781 37.2067 0
    endloop
  endfacet
  facet normal -0 0 -1
    outer loop
      vertex 81.831 5.1875 0
      vertex 75.1175 4.306 0
      vertex 76.0297 6.23122 0
    endloop
  endfacet
  facet normal 0 0 -1
    outer loop
      vertex 75.9468 38.6933 0
      vertex 81.9781 37.2067 0
      vertex 81.6275 35.398 0
    endloop
  endfacet
  facet normal -0 0 -1
    outer loop
      vertex 85.9428 42.2758 0
      vertex 84.594 41.3485 0
      vertex 82.4971 46.5786 0
    endloop
  endfacet
  facet normal 0 0 -1
    outer loop
      vertex 87.4634 42.9381 0
      vertex 85.0391 47.6382 0
      vertex 87.8799 48.274 0
    endloop
  endfacet
  facet normal 0 0 -1
    outer loop
      vertex 98.4364 40.1028 0
      vertex 102.123 45.0785 0
      vertex 103.822 43.1956 0
    endloop
  endfacet
  facet normal 0 0 -1
    outer loop
      vertex 99.157 38.6871 0
      vertex 105.763 38.3554 0
      vertex 99.5894 37.051 0
    endloop
  endfacet
  facet normal 0 0 -1
    outer loop
      vertex 99.157 38.6871 0
      vertex 105.035 40.9546 0
      vertex 105.763 38.3554 0
    endloop
  endfacet
  facet normal 0 0 -1
    outer loop
      vertex 92.9584 43.3324 0
      vertex 91.0195 48.486 0
      vertex 94.4217 48.273 0
    endloop
  endfacet
  facet normal -0 0 -1
    outer loop
      vertex 91.0195 43.468 0
      vertex 89.1556 43.3355 0
      vertex 91.0195 48.486 0
    endloop
  endfacet
  facet normal -0 0 -1
    outer loop
      vertex 89.1556 43.3355 0
      vertex 87.4634 42.9381 0
      vertex 87.8799 48.274 0
    endloop
  endfacet
  facet normal 0 0 -1
    outer loop
      vertex 106.006 35.398 0
      vertex 105.927 34.0101 0
      vertex 99.7335 35.1945 0
    endloop
  endfacet
  facet normal 0 -0 -1
    outer loop
      vertex 99.7335 35.1945 0
      vertex 105.927 34.0101 0
      vertex 99.6498 33.7748 0
    endloop
  endfacet
  facet normal 0 0 -1
    outer loop
      vertex 99.6498 33.7748 0
      vertex 105.688 32.6264 0
      vertex 105.291 31.2468 0
    endloop
  endfacet
  facet normal 0 0 -1
    outer loop
      vertex 98.98 31.1641 0
      vertex 99.3986 32.4314 0
      vertex 104.734 29.8715 0
    endloop
  endfacet
  facet normal 0 0 -1
    outer loop
      vertex 82.5894 38.8014 0
      vertex 76.9439 41.1196 0
      vertex 78.3796 43.2535 0
    endloop
  endfacet
  facet normal 0 0 -1
    outer loop
      vertex 75.9468 38.6933 0
      vertex 76.9439 41.1196 0
      vertex 81.9781 37.2067 0
    endloop
  endfacet
  facet normal 0 0 -1
    outer loop
      vertex 81.6275 35.398 0
      vertex 75.3885 35.9745 0
      vertex 75.9468 38.6933 0
    endloop
  endfacet
  facet normal -0 0 -1
    outer loop
      vertex 104.021 28.4982 0
      vertex 103.154 27.125 0
      vertex 98.394 29.973 0
    endloop
  endfacet
  facet normal 0 0 -1
    outer loop
      vertex 100.954 24.3785 0
      vertex 96.8469 27.7182 0
      vertex 97.6723 28.8329 0
    endloop
  endfacet
  facet normal 0 0 -1
    outer loop
      vertex 93.7666 24.514 0
      vertex 94.8845 25.565 0
      vertex 97.3006 20.8776 0
    endloop
  endfacet
  facet normal 0 0 -1
    outer loop
      vertex 94.6156 18.5614 0
      vertex 91.3339 22.412 0
      vertex 92.5831 23.463 0
    endloop
  endfacet
  facet normal -0 0 -1
    outer loop
      vertex 94.6156 18.5614 0
      vertex 91.3585 15.868 0
      vertex 90.019 21.361 0
    endloop
  endfacet
  facet normal 0 -0 -1
    outer loop
      vertex 88.6681 20.2877 0
      vertex 91.3585 15.868 0
      vertex 87.3107 19.1699 0
    endloop
  endfacet
  facet normal 0 0 -1
    outer loop
      vertex 87.8575 12.8377 0
      vertex 85.9471 18.0075 0
      vertex 89.5084 14.3137 0
    endloop
  endfacet
  facet normal 0 0 -1
    outer loop
      vertex 87.8575 12.8377 0
      vertex 83.2198 15.5354 0
      vertex 84.577 16.8005 0
    endloop
  endfacet
  facet normal 0 -0 -1
    outer loop
      vertex 83.2198 15.5354 0
      vertex 86.4059 11.4402 0
      vertex 81.8944 14.1982 0
    endloop
  endfacet
  facet normal 0 0 -1
    outer loop
      vertex 80.6006 12.7889 0
      vertex 81.8944 14.1982 0
      vertex 85.1535 10.121 0
    endloop
  endfacet
  facet normal 0 0 -1
    outer loop
      vertex 84.0813 8.85265 0
      vertex 80.6006 12.7889 0
      vertex 85.1535 10.121 0
    endloop
  endfacet
  facet normal 0 0 -1
    outer loop
      vertex 85.9471 18.0075 0
      vertex 87.3107 19.1699 0
      vertex 89.5084 14.3137 0
    endloop
  endfacet
  facet normal 0 0 -1
    outer loop
      vertex 78.3796 43.2535 0
      vertex 80.254 45.095 0
      vertex 83.4613 40.182 0
    endloop
  endfacet
  facet normal 0 0 -1
    outer loop
      vertex 78.3796 43.2535 0
      vertex 83.4613 40.182 0
      vertex 82.5894 38.8014 0
    endloop
  endfacet
  facet normal 0 0 -1
    outer loop
      vertex 80.254 45.095 0
      vertex 82.4971 46.5786 0
      vertex 84.594 41.3485 0
    endloop
  endfacet
  facet normal 0 0 -1
    outer loop
      vertex 80.254 45.095 0
      vertex 84.594 41.3485 0
      vertex 83.4613 40.182 0
    endloop
  endfacet
  facet normal 0 -0 -1
    outer loop
      vertex 85.0391 47.6382 0
      vertex 85.9428 42.2758 0
      vertex 82.4971 46.5786 0
    endloop
  endfacet
  facet normal 0 0 -1
    outer loop
      vertex 85.9428 42.2758 0
      vertex 85.0391 47.6382 0
      vertex 87.4634 42.9381 0
    endloop
  endfacet
  facet normal 0 0 -1
    outer loop
      vertex 91.0195 48.486 0
      vertex 89.1556 43.3355 0
      vertex 87.8799 48.274 0
    endloop
  endfacet
  facet normal 0 0 -1
    outer loop
      vertex 92.9584 43.3324 0
      vertex 91.0195 43.468 0
      vertex 91.0195 48.486 0
    endloop
  endfacet
  facet normal 0 0 -1
    outer loop
      vertex 94.6727 42.9255 0
      vertex 92.9584 43.3324 0
      vertex 94.4217 48.273 0
    endloop
  endfacet
  facet normal 0 0 -1
    outer loop
      vertex 97.4065 47.6341 0
      vertex 96.1624 42.2474 0
      vertex 94.6727 42.9255 0
    endloop
  endfacet
  facet normal -0 0 -1
    outer loop
      vertex 97.4065 47.6341 0
      vertex 94.6727 42.9255 0
      vertex 94.4217 48.273 0
    endloop
  endfacet
  facet normal 0 0 -1
    outer loop
      vertex 99.9737 46.5693 0
      vertex 97.4275 41.298 0
      vertex 96.1624 42.2474 0
    endloop
  endfacet
  facet normal -0 0 -1
    outer loop
      vertex 99.9737 46.5693 0
      vertex 96.1624 42.2474 0
      vertex 97.4065 47.6341 0
    endloop
  endfacet
  facet normal 0 0 -1
    outer loop
      vertex 102.123 45.0785 0
      vertex 98.4364 40.1028 0
      vertex 97.4275 41.298 0
    endloop
  endfacet
  facet normal -0 0 -1
    outer loop
      vertex 102.123 45.0785 0
      vertex 97.4275 41.298 0
      vertex 99.9737 46.5693 0
    endloop
  endfacet
  facet normal 0 0 -1
    outer loop
      vertex 99.157 38.6871 0
      vertex 98.4364 40.1028 0
      vertex 103.822 43.1956 0
    endloop
  endfacet
  facet normal 0 -0 -1
    outer loop
      vertex 103.822 43.1956 0
      vertex 105.035 40.9546 0
      vertex 99.157 38.6871 0
    endloop
  endfacet
  facet normal -0 0 -1
    outer loop
      vertex 106.006 35.398 0
      vertex 99.7335 35.1945 0
      vertex 99.5894 37.051 0
    endloop
  endfacet
  facet normal 0 0 -1
    outer loop
      vertex 106.006 35.398 0
      vertex 99.5894 37.051 0
      vertex 105.763 38.3554 0
    endloop
  endfacet
  facet normal 0 0 -1
    outer loop
      vertex 99.6498 33.7748 0
      vertex 105.927 34.0101 0
      vertex 105.688 32.6264 0
    endloop
  endfacet
  facet normal 0 0 -1
    outer loop
      vertex 104.734 29.8715 0
      vertex 99.3986 32.4314 0
      vertex 105.291 31.2468 0
    endloop
  endfacet
  facet normal 0 0 -1
    outer loop
      vertex 99.3986 32.4314 0
      vertex 99.6498 33.7748 0
      vertex 105.291 31.2468 0
    endloop
  endfacet
  facet normal 0 0 -1
    outer loop
      vertex 104.021 28.4982 0
      vertex 98.98 31.1641 0
      vertex 104.734 29.8715 0
    endloop
  endfacet
  facet normal 0 0 -1
    outer loop
      vertex 98.394 29.973 0
      vertex 103.154 27.125 0
      vertex 102.131 25.7517 0
    endloop
  endfacet
  facet normal 0 0 -1
    outer loop
      vertex 102.131 25.7517 0
      vertex 97.6723 28.8329 0
      vertex 98.394 29.973 0
    endloop
  endfacet
  facet normal -0 0 -1
    outer loop
      vertex 102.131 25.7517 0
      vertex 100.954 24.3785 0
      vertex 97.6723 28.8329 0
    endloop
  endfacet
  facet normal 0 0 -1
    outer loop
      vertex 100.954 24.3785 0
      vertex 95.9176 26.6289 0
      vertex 96.8469 27.7182 0
    endloop
  endfacet
  facet normal -0 0 -1
    outer loop
      vertex 100.954 24.3785 0
      vertex 99.4134 22.8167 0
      vertex 95.9176 26.6289 0
    endloop
  endfacet
  facet normal 0 -0 -1
    outer loop
      vertex 95.9176 26.6289 0
      vertex 99.4134 22.8167 0
      vertex 94.8845 25.565 0
    endloop
  endfacet
  facet normal 0 0 -1
    outer loop
      vertex 94.8845 25.565 0
      vertex 99.4134 22.8167 0
      vertex 97.3006 20.8776 0
    endloop
  endfacet
  facet normal 0 -0 -1
    outer loop
      vertex 93.7666 24.514 0
      vertex 97.3006 20.8776 0
      vertex 92.5831 23.463 0
    endloop
  endfacet
  facet normal 0 0 -1
    outer loop
      vertex 92.5831 23.463 0
      vertex 97.3006 20.8776 0
      vertex 94.6156 18.5614 0
    endloop
  endfacet
  facet normal 0 -0 -1
    outer loop
      vertex 91.3339 22.412 0
      vertex 94.6156 18.5614 0
      vertex 90.019 21.361 0
    endloop
  endfacet
  facet normal 0 -0 -1
    outer loop
      vertex 90.019 21.361 0
      vertex 91.3585 15.868 0
      vertex 88.6681 20.2877 0
    endloop
  endfacet
  facet normal -0 0 -1
    outer loop
      vertex 91.3585 15.868 0
      vertex 89.5084 14.3137 0
      vertex 87.3107 19.1699 0
    endloop
  endfacet
  facet normal 0 0 -1
    outer loop
      vertex 84.577 16.8005 0
      vertex 85.9471 18.0075 0
      vertex 87.8575 12.8377 0
    endloop
  endfacet
  facet normal 0 0 -1
    outer loop
      vertex 83.2198 15.5354 0
      vertex 87.8575 12.8377 0
      vertex 86.4059 11.4402 0
    endloop
  endfacet
  facet normal 0 0 -1
    outer loop
      vertex 81.8944 14.1982 0
      vertex 86.4059 11.4402 0
      vertex 85.1535 10.121 0
    endloop
  endfacet
  facet normal 0 -0 -1
    outer loop
      vertex 80.6006 12.7889 0
      vertex 84.0813 8.85265 0
      vertex 79.3385 11.3075 0
    endloop
  endfacet
  facet normal 0 0 -1
    outer loop
      vertex 79.3385 11.3075 0
      vertex 84.0813 8.85265 0
      vertex 83.1701 7.60762 0
    endloop
  endfacet
  facet normal 0 0 -1
    outer loop
      vertex 78.1402 9.73196 0
      vertex 79.3385 11.3075 0
      vertex 83.1701 7.60762 0
    endloop
  endfacet
  facet normal 0 0 -1
    outer loop
      vertex 78.1402 9.73196 0
      vertex 83.1701 7.60762 0
      vertex 82.42 6.38589 0
    endloop
  endfacet
  facet normal 0 0 -1
    outer loop
      vertex 69.1372 0 0
      vertex 51.3702 5.1875 0
      vertex 57.5077 5.1875 0
    endloop
  endfacet
  facet normal 0 0 -1
    outer loop
      vertex 77.0372 8.03987 0
      vertex 78.1402 9.73196 0
      vertex 82.42 6.38589 0
    endloop
  endfacet
  facet normal 0 0 -1
    outer loop
      vertex 81.831 5.1875 0
      vertex 77.0372 8.03987 0
      vertex 82.42 6.38589 0
    endloop
  endfacet
  facet normal 0 0 -1
    outer loop
      vertex 81.831 5.1875 0
      vertex 76.0297 6.23122 0
      vertex 77.0372 8.03987 0
    endloop
  endfacet
  facet normal 0 0 -1
    outer loop
      vertex 75.1175 0 0
      vertex 75.1175 4.306 0
      vertex 81.831 5.1875 0
    endloop
  endfacet
  facet normal 0 0 -1
    outer loop
      vertex 106.752 0 0
      vertex 75.1175 0 0
      vertex 81.831 5.1875 0
    endloop
  endfacet
  facet normal 0 0 -1
    outer loop
      vertex 69.1372 0 0
      vertex 57.5077 5.1875 0
      vertex 69.1372 5.1875 0
    endloop
  endfacet
  facet normal 0 0 -1
    outer loop
      vertex 40.5882 40.0095 0
      vertex 51.3702 41.942 0
      vertex 40.5882 34.2455 0
    endloop
  endfacet
  facet normal 0 0 -1
    outer loop
      vertex 40.5882 40.0095 0
      vertex 51.8792 47.774 0
      vertex 51.3702 41.942 0
    endloop
  endfacet
  facet normal 0 0 -1
    outer loop
      vertex 39.1982 0 0
      vertex 39.1982 5.1875 0
      vertex 51.3702 5.1875 0
    endloop
  endfacet
  facet normal 0 0 -1
    outer loop
      vertex 20.7845 0 0
      vertex 13.5625 0 0
      vertex 17.1565 4.78099 0
    endloop
  endfacet
  facet normal 0 0 -1
    outer loop
      vertex 57.5077 5.1875 0
      vertex 51.3702 41.942 0
      vertex 57.5077 47.774 0
    endloop
  endfacet
  facet normal 0 0 -1
    outer loop
      vertex 51.3702 41.942 0
      vertex 51.8792 47.774 0
      vertex 57.5077 47.774 0
    endloop
  endfacet
  facet normal 0 0 -1
    outer loop
      vertex 57.5077 5.1875 0
      vertex 51.3702 5.1875 0
      vertex 51.3702 41.942 0
    endloop
  endfacet
  facet normal 0 0 -1
    outer loop
      vertex 69.1372 0 0
      vertex 39.1982 0 0
      vertex 51.3702 5.1875 0
    endloop
  endfacet
  facet normal 0 0 -1
    outer loop
      vertex 19.6655 12.749 0
      vertex 28.0065 36.6865 0
      vertex 34.4825 36.6865 0
    endloop
  endfacet
  facet normal 0 0 -1
    outer loop
      vertex 20.7845 0 0
      vertex 19.6655 12.749 0
      vertex 34.4825 36.6865 0
    endloop
  endfacet
  facet normal 0 0 -1
    outer loop
      vertex 20.7845 0 0
      vertex 18.3435 8.74799 0
      vertex 19.6655 12.749 0
    endloop
  endfacet
  facet normal 0 0 -1
    outer loop
      vertex 20.7845 0 0
      vertex 17.1565 4.78099 0
      vertex 18.3435 8.74799 0
    endloop
  endfacet
  facet normal 0 0 -1
    outer loop
      vertex 13.5625 0 0
      vertex 0.237488 36.6865 0
      vertex 14.817 12.8165 0
    endloop
  endfacet
  facet normal -0 0 -1
    outer loop
      vertex 15.1286 11.8058 0
      vertex 13.5625 0 0
      vertex 14.817 12.8165 0
    endloop
  endfacet
  facet normal -0 -0 -1
    outer loop
      vertex 6.7475 36.6865 0
      vertex 14.817 12.8165 0
      vertex 0.237488 36.6865 0
    endloop
  endfacet
  facet normal 0 -0 -1
    outer loop
      vertex 15.1286 11.8058 0
      vertex 15.6224 10.1296 0
      vertex 13.5625 0 0
    endloop
  endfacet
  facet normal 0 0 -1
    outer loop
      vertex 13.5625 0 0
      vertex 15.6224 10.1296 0
      vertex 16.2983 7.78802 0
    endloop
  endfacet
  facet normal -0 0 -1
    outer loop
      vertex 17.1565 4.78099 0
      vertex 13.5625 0 0
      vertex 16.2983 7.78802 0
    endloop
  endfacet
  facet normal 0 0 1
    outer loop
      vertex 98.98 31.1641 10
      vertex 98.394 29.973 10
      vertex 104.021 28.4982 10
    endloop
  endfacet
  facet normal 0 -0 1
    outer loop
      vertex 106.752 0 10
      vertex 106.752 5.1875 10
      vertex 81.831 5.1875 10
    endloop
  endfacet
  facet normal 0 -0 1
    outer loop
      vertex 81.9781 37.2067 10
      vertex 82.5894 38.8014 10
      vertex 76.9439 41.1196 10
    endloop
  endfacet
  facet normal 0 0 1
    outer loop
      vertex 76.0297 6.23122 10
      vertex 75.1175 4.306 10
      vertex 81.831 5.1875 10
    endloop
  endfacet
  facet normal 0 -0 1
    outer loop
      vertex 81.6275 35.398 10
      vertex 81.9781 37.2067 10
      vertex 75.9468 38.6933 10
    endloop
  endfacet
  facet normal 0 0 1
    outer loop
      vertex 82.4971 46.5786 10
      vertex 84.594 41.3485 10
      vertex 85.9428 42.2758 10
    endloop
  endfacet
  facet normal 0 0 1
    outer loop
      vertex 87.8799 48.274 10
      vertex 85.0391 47.6382 10
      vertex 87.4634 42.9381 10
    endloop
  endfacet
  facet normal 0 0 1
    outer loop
      vertex 103.822 43.1956 10
      vertex 102.123 45.0785 10
      vertex 98.4364 40.1028 10
    endloop
  endfacet
  facet normal 0 -0 1
    outer loop
      vertex 99.5894 37.051 10
      vertex 105.763 38.3554 10
      vertex 99.157 38.6871 10
    endloop
  endfacet
  facet normal 0 0 1
    outer loop
      vertex 105.763 38.3554 10
      vertex 105.035 40.9546 10
      vertex 99.157 38.6871 10
    endloop
  endfacet
  facet normal 0 0 1
    outer loop
      vertex 94.4217 48.273 10
      vertex 91.0195 48.486 10
      vertex 92.9584 43.3324 10
    endloop
  endfacet
  facet normal 0 0 1
    outer loop
      vertex 91.0195 48.486 10
      vertex 89.1556 43.3355 10
      vertex 91.0195 43.468 10
    endloop
  endfacet
  facet normal 0 0 1
    outer loop
      vertex 87.8799 48.274 10
      vertex 87.4634 42.9381 10
      vertex 89.1556 43.3355 10
    endloop
  endfacet
  facet normal -0 0 1
    outer loop
      vertex 99.7335 35.1945 10
      vertex 105.927 34.0101 10
      vertex 106.006 35.398 10
    endloop
  endfacet
  facet normal 0 0 1
    outer loop
      vertex 99.6498 33.7748 10
      vertex 105.927 34.0101 10
      vertex 99.7335 35.1945 10
    endloop
  endfacet
  facet normal 0 -0 1
    outer loop
      vertex 105.291 31.2468 10
      vertex 105.688 32.6264 10
      vertex 99.6498 33.7748 10
    endloop
  endfacet
  facet normal 0 0 1
    outer loop
      vertex 104.734 29.8715 10
      vertex 99.3986 32.4314 10
      vertex 98.98 31.1641 10
    endloop
  endfacet
  facet normal 0 0 1
    outer loop
      vertex 78.3796 43.2535 10
      vertex 76.9439 41.1196 10
      vertex 82.5894 38.8014 10
    endloop
  endfacet
  facet normal 0 0 1
    outer loop
      vertex 81.9781 37.2067 10
      vertex 76.9439 41.1196 10
      vertex 75.9468 38.6933 10
    endloop
  endfacet
  facet normal 0 0 1
    outer loop
      vertex 75.9468 38.6933 10
      vertex 75.3885 35.9745 10
      vertex 81.6275 35.398 10
    endloop
  endfacet
  facet normal 0 0 1
    outer loop
      vertex 98.394 29.973 10
      vertex 103.154 27.125 10
      vertex 104.021 28.4982 10
    endloop
  endfacet
  facet normal 0 0 1
    outer loop
      vertex 97.6723 28.8329 10
      vertex 96.8469 27.7182 10
      vertex 100.954 24.3785 10
    endloop
  endfacet
  facet normal 0 0 1
    outer loop
      vertex 97.3006 20.8776 10
      vertex 94.8845 25.565 10
      vertex 93.7666 24.514 10
    endloop
  endfacet
  facet normal 0 0 1
    outer loop
      vertex 92.5831 23.463 10
      vertex 91.3339 22.412 10
      vertex 94.6156 18.5614 10
    endloop
  endfacet
  facet normal 0 0 1
    outer loop
      vertex 90.019 21.361 10
      vertex 91.3585 15.868 10
      vertex 94.6156 18.5614 10
    endloop
  endfacet
  facet normal -0 0 1
    outer loop
      vertex 87.3107 19.1699 10
      vertex 91.3585 15.868 10
      vertex 88.6681 20.2877 10
    endloop
  endfacet
  facet normal 0 0 1
    outer loop
      vertex 89.5084 14.3137 10
      vertex 85.9471 18.0075 10
      vertex 87.8575 12.8377 10
    endloop
  endfacet
  facet normal 0 0 1
    outer loop
      vertex 84.577 16.8005 10
      vertex 83.2198 15.5354 10
      vertex 87.8575 12.8377 10
    endloop
  endfacet
  facet normal -0 0 1
    outer loop
      vertex 81.8944 14.1982 10
      vertex 86.4059 11.4402 10
      vertex 83.2198 15.5354 10
    endloop
  endfacet
  facet normal 0 0 1
    outer loop
      vertex 85.1535 10.121 10
      vertex 81.8944 14.1982 10
      vertex 80.6006 12.7889 10
    endloop
  endfacet
  facet normal 0 0 1
    outer loop
      vertex 85.1535 10.121 10
      vertex 80.6006 12.7889 10
      vertex 84.0813 8.85265 10
    endloop
  endfacet
  facet normal 0 0 1
    outer loop
      vertex 89.5084 14.3137 10
      vertex 87.3107 19.1699 10
      vertex 85.9471 18.0075 10
    endloop
  endfacet
  facet normal 0 0 1
    outer loop
      vertex 83.4613 40.182 10
      vertex 80.254 45.095 10
      vertex 78.3796 43.2535 10
    endloop
  endfacet
  facet normal 0 -0 1
    outer loop
      vertex 82.5894 38.8014 10
      vertex 83.4613 40.182 10
      vertex 78.3796 43.2535 10
    endloop
  endfacet
  facet normal 0 0 1
    outer loop
      vertex 84.594 41.3485 10
      vertex 82.4971 46.5786 10
      vertex 80.254 45.095 10
    endloop
  endfacet
  facet normal 0 -0 1
    outer loop
      vertex 83.4613 40.182 10
      vertex 84.594 41.3485 10
      vertex 80.254 45.095 10
    endloop
  endfacet
  facet normal -0 0 1
    outer loop
      vertex 82.4971 46.5786 10
      vertex 85.9428 42.2758 10
      vertex 85.0391 47.6382 10
    endloop
  endfacet
  facet normal 0 0 1
    outer loop
      vertex 87.4634 42.9381 10
      vertex 85.0391 47.6382 10
      vertex 85.9428 42.2758 10
    endloop
  endfacet
  facet normal -0 0 1
    outer loop
      vertex 87.8799 48.274 10
      vertex 89.1556 43.3355 10
      vertex 91.0195 48.486 10
    endloop
  endfacet
  facet normal 0 0 1
    outer loop
      vertex 91.0195 48.486 10
      vertex 91.0195 43.468 10
      vertex 92.9584 43.3324 10
    endloop
  endfacet
  facet normal 0 0 1
    outer loop
      vertex 94.4217 48.273 10
      vertex 92.9584 43.3324 10
      vertex 94.6727 42.9255 10
    endloop
  endfacet
  facet normal -0 0 1
    outer loop
      vertex 94.6727 42.9255 10
      vertex 96.1624 42.2474 10
      vertex 97.4065 47.6341 10
    endloop
  endfacet
  facet normal 0 0 1
    outer loop
      vertex 94.4217 48.273 10
      vertex 94.6727 42.9255 10
      vertex 97.4065 47.6341 10
    endloop
  endfacet
  facet normal -0 0 1
    outer loop
      vertex 96.1624 42.2474 10
      vertex 97.4275 41.298 10
      vertex 99.9737 46.5693 10
    endloop
  endfacet
  facet normal 0 0 1
    outer loop
      vertex 97.4065 47.6341 10
      vertex 96.1624 42.2474 10
      vertex 99.9737 46.5693 10
    endloop
  endfacet
  facet normal -0 0 1
    outer loop
      vertex 97.4275 41.298 10
      vertex 98.4364 40.1028 10
      vertex 102.123 45.0785 10
    endloop
  endfacet
  facet normal 0 0 1
    outer loop
      vertex 99.9737 46.5693 10
      vertex 97.4275 41.298 10
      vertex 102.123 45.0785 10
    endloop
  endfacet
  facet normal 0 0 1
    outer loop
      vertex 103.822 43.1956 10
      vertex 98.4364 40.1028 10
      vertex 99.157 38.6871 10
    endloop
  endfacet
  facet normal 0 0 1
    outer loop
      vertex 99.157 38.6871 10
      vertex 105.035 40.9546 10
      vertex 103.822 43.1956 10
    endloop
  endfacet
  facet normal 0 0 1
    outer loop
      vertex 99.5894 37.051 10
      vertex 99.7335 35.1945 10
      vertex 106.006 35.398 10
    endloop
  endfacet
  facet normal 0 0 1
    outer loop
      vertex 105.763 38.3554 10
      vertex 99.5894 37.051 10
      vertex 106.006 35.398 10
    endloop
  endfacet
  facet normal 0 -0 1
    outer loop
      vertex 105.688 32.6264 10
      vertex 105.927 34.0101 10
      vertex 99.6498 33.7748 10
    endloop
  endfacet
  facet normal 0 0 1
    outer loop
      vertex 105.291 31.2468 10
      vertex 99.3986 32.4314 10
      vertex 104.734 29.8715 10
    endloop
  endfacet
  facet normal 0 0 1
    outer loop
      vertex 105.291 31.2468 10
      vertex 99.6498 33.7748 10
      vertex 99.3986 32.4314 10
    endloop
  endfacet
  facet normal 0 0 1
    outer loop
      vertex 104.734 29.8715 10
      vertex 98.98 31.1641 10
      vertex 104.021 28.4982 10
    endloop
  endfacet
  facet normal 0 -0 1
    outer loop
      vertex 102.131 25.7517 10
      vertex 103.154 27.125 10
      vertex 98.394 29.973 10
    endloop
  endfacet
  facet normal 0 0 1
    outer loop
      vertex 98.394 29.973 10
      vertex 97.6723 28.8329 10
      vertex 102.131 25.7517 10
    endloop
  endfacet
  facet normal 0 0 1
    outer loop
      vertex 97.6723 28.8329 10
      vertex 100.954 24.3785 10
      vertex 102.131 25.7517 10
    endloop
  endfacet
  facet normal 0 0 1
    outer loop
      vertex 96.8469 27.7182 10
      vertex 95.9176 26.6289 10
      vertex 100.954 24.3785 10
    endloop
  endfacet
  facet normal 0 0 1
    outer loop
      vertex 95.9176 26.6289 10
      vertex 99.4134 22.8167 10
      vertex 100.954 24.3785 10
    endloop
  endfacet
  facet normal -0 0 1
    outer loop
      vertex 94.8845 25.565 10
      vertex 99.4134 22.8167 10
      vertex 95.9176 26.6289 10
    endloop
  endfacet
  facet normal 0 -0 1
    outer loop
      vertex 97.3006 20.8776 10
      vertex 99.4134 22.8167 10
      vertex 94.8845 25.565 10
    endloop
  endfacet
  facet normal -0 0 1
    outer loop
      vertex 92.5831 23.463 10
      vertex 97.3006 20.8776 10
      vertex 93.7666 24.514 10
    endloop
  endfacet
  facet normal 0 -0 1
    outer loop
      vertex 94.6156 18.5614 10
      vertex 97.3006 20.8776 10
      vertex 92.5831 23.463 10
    endloop
  endfacet
  facet normal -0 0 1
    outer loop
      vertex 90.019 21.361 10
      vertex 94.6156 18.5614 10
      vertex 91.3339 22.412 10
    endloop
  endfacet
  facet normal -0 0 1
    outer loop
      vertex 88.6681 20.2877 10
      vertex 91.3585 15.868 10
      vertex 90.019 21.361 10
    endloop
  endfacet
  facet normal 0 0 1
    outer loop
      vertex 87.3107 19.1699 10
      vertex 89.5084 14.3137 10
      vertex 91.3585 15.868 10
    endloop
  endfacet
  facet normal 0 0 1
    outer loop
      vertex 87.8575 12.8377 10
      vertex 85.9471 18.0075 10
      vertex 84.577 16.8005 10
    endloop
  endfacet
  facet normal 0 -0 1
    outer loop
      vertex 86.4059 11.4402 10
      vertex 87.8575 12.8377 10
      vertex 83.2198 15.5354 10
    endloop
  endfacet
  facet normal 0 -0 1
    outer loop
      vertex 85.1535 10.121 10
      vertex 86.4059 11.4402 10
      vertex 81.8944 14.1982 10
    endloop
  endfacet
  facet normal -0 0 1
    outer loop
      vertex 79.3385 11.3075 10
      vertex 84.0813 8.85265 10
      vertex 80.6006 12.7889 10
    endloop
  endfacet
  facet normal 0 -0 1
    outer loop
      vertex 83.1701 7.60762 10
      vertex 84.0813 8.85265 10
      vertex 79.3385 11.3075 10
    endloop
  endfacet
  facet normal 0 0 1
    outer loop
      vertex 83.1701 7.60762 10
      vertex 79.3385 11.3075 10
      vertex 78.1402 9.73196 10
    endloop
  endfacet
  facet normal 0 -0 1
    outer loop
      vertex 82.42 6.38589 10
      vertex 83.1701 7.60762 10
      vertex 78.1402 9.73196 10
    endloop
  endfacet
  facet normal 0 0 1
    outer loop
      vertex 57.5077 5.1875 10
      vertex 51.3702 5.1875 10
      vertex 69.1372 0 10
    endloop
  endfacet
  facet normal 0 0 1
    outer loop
      vertex 82.42 6.38589 10
      vertex 78.1402 9.73196 10
      vertex 77.0372 8.03987 10
    endloop
  endfacet
  facet normal 0 0 1
    outer loop
      vertex 82.42 6.38589 10
      vertex 77.0372 8.03987 10
      vertex 81.831 5.1875 10
    endloop
  endfacet
  facet normal 0 0 1
    outer loop
      vertex 77.0372 8.03987 10
      vertex 76.0297 6.23122 10
      vertex 81.831 5.1875 10
    endloop
  endfacet
  facet normal 0 0 1
    outer loop
      vertex 81.831 5.1875 10
      vertex 75.1175 4.306 10
      vertex 75.1175 0 10
    endloop
  endfacet
  facet normal 0 0 1
    outer loop
      vertex 81.831 5.1875 10
      vertex 75.1175 0 10
      vertex 106.752 0 10
    endloop
  endfacet
  facet normal 0 0 1
    outer loop
      vertex 69.1372 5.1875 10
      vertex 57.5077 5.1875 10
      vertex 69.1372 0 10
    endloop
  endfacet
  facet normal 0 0 1
    outer loop
      vertex 40.5882 34.2455 10
      vertex 51.3702 41.942 10
      vertex 40.5882 40.0095 10
    endloop
  endfacet
  facet normal 0 -0 1
    outer loop
      vertex 51.3702 41.942 10
      vertex 51.8792 47.774 10
      vertex 40.5882 40.0095 10
    endloop
  endfacet
  facet normal 0 0 1
    outer loop
      vertex 51.3702 5.1875 10
      vertex 39.1982 5.1875 10
      vertex 39.1982 0 10
    endloop
  endfacet
  facet normal 0 0 1
    outer loop
      vertex 17.1565 4.78099 10
      vertex 13.5625 0 10
      vertex 20.7845 0 10
    endloop
  endfacet
  facet normal 0 0 1
    outer loop
      vertex 57.5077 47.774 10
      vertex 51.3702 41.942 10
      vertex 57.5077 5.1875 10
    endloop
  endfacet
  facet normal 0 0 1
    outer loop
      vertex 57.5077 47.774 10
      vertex 51.8792 47.774 10
      vertex 51.3702 41.942 10
    endloop
  endfacet
  facet normal 0 0 1
    outer loop
      vertex 51.3702 41.942 10
      vertex 51.3702 5.1875 10
      vertex 57.5077 5.1875 10
    endloop
  endfacet
  facet normal 0 0 1
    outer loop
      vertex 51.3702 5.1875 10
      vertex 39.1982 0 10
      vertex 69.1372 0 10
    endloop
  endfacet
  facet normal 0 0 1
    outer loop
      vertex 34.4825 36.6865 10
      vertex 28.0065 36.6865 10
      vertex 19.6655 12.749 10
    endloop
  endfacet
  facet normal 0 0 1
    outer loop
      vertex 34.4825 36.6865 10
      vertex 19.6655 12.749 10
      vertex 20.7845 0 10
    endloop
  endfacet
  facet normal 0 0 1
    outer loop
      vertex 19.6655 12.749 10
      vertex 18.3435 8.74799 10
      vertex 20.7845 0 10
    endloop
  endfacet
  facet normal 0 0 1
    outer loop
      vertex 18.3435 8.74799 10
      vertex 17.1565 4.78099 10
      vertex 20.7845 0 10
    endloop
  endfacet
  facet normal 0 0 1
    outer loop
      vertex 14.817 12.8165 10
      vertex 0.237488 36.6865 10
      vertex 13.5625 0 10
    endloop
  endfacet
  facet normal 0 0 1
    outer loop
      vertex 14.817 12.8165 10
      vertex 13.5625 0 10
      vertex 15.1286 11.8058 10
    endloop
  endfacet
  facet normal -0 0 1
    outer loop
      vertex 0.237488 36.6865 10
      vertex 14.817 12.8165 10
      vertex 6.7475 36.6865 10
    endloop
  endfacet
  facet normal 0 0 1
    outer loop
      vertex 13.5625 0 10
      vertex 15.6224 10.1296 10
      vertex 15.1286 11.8058 10
    endloop
  endfacet
  facet normal 0 0 1
    outer loop
      vertex 16.2983 7.78802 10
      vertex 15.6224 10.1296 10
      vertex 13.5625 0 10
    endloop
  endfacet
  facet normal 0 0 1
    outer loop
      vertex 16.2983 7.78802 10
      vertex 13.5625 0 10
      vertex 17.1565 4.78099 10
    endloop
  endfacet
  facet normal 0 1 0
    outer loop
      vertex 81.831 5.1875 0
      vertex 106.752 5.1875 10
      vertex 106.752 5.1875 0
    endloop
  endfacet
  facet normal 0 1 0
    outer loop
      vertex 81.831 5.1875 0
      vertex 81.831 5.1875 10
      vertex 106.752 5.1875 10
    endloop
  endfacet
  facet normal 0.89746 -0.441095 0
    outer loop
      vertex 82.42 6.38589 0
      vertex 81.831 5.1875 10
      vertex 81.831 5.1875 0
    endloop
  endfacet
  facet normal 0.89746 -0.441095 0
    outer loop
      vertex 82.42 6.38589 0
      vertex 82.42 6.38589 10
      vertex 81.831 5.1875 10
    endloop
  endfacet
  facet normal 0.852198 -0.52322 0
    outer loop
      vertex 83.1701 7.60762 0
      vertex 82.42 6.38589 10
      vertex 82.42 6.38589 0
    endloop
  endfacet
  facet normal 0.852198 -0.52322 0
    outer loop
      vertex 83.1701 7.60762 0
      vertex 83.1701 7.60762 10
      vertex 82.42 6.38589 10
    endloop
  endfacet
  facet normal 0.806968 -0.590595 0
    outer loop
      vertex 84.0813 8.85265 0
      vertex 83.1701 7.60762 10
      vertex 83.1701 7.60762 0
    endloop
  endfacet
  facet normal 0.806968 -0.590595 0
    outer loop
      vertex 84.0813 8.85265 0
      vertex 84.0813 8.85265 10
      vertex 83.1701 7.60762 10
    endloop
  endfacet
  facet normal 0.763689 -0.645585 0
    outer loop
      vertex 85.1535 10.121 0
      vertex 84.0813 8.85265 10
      vertex 84.0813 8.85265 0
    endloop
  endfacet
  facet normal 0.763689 -0.645585 0
    outer loop
      vertex 85.1535 10.121 0
      vertex 85.1535 10.121 10
      vertex 84.0813 8.85265 10
    endloop
  endfacet
  facet normal 0.72523 -0.688507 0
    outer loop
      vertex 86.4059 11.4402 0
      vertex 85.1535 10.121 10
      vertex 85.1535 10.121 0
    endloop
  endfacet
  facet normal 0.72523 -0.688507 0
    outer loop
      vertex 86.4059 11.4402 0
      vertex 86.4059 11.4402 10
      vertex 85.1535 10.121 10
    endloop
  endfacet
  facet normal 0.693555 -0.720404 0
    outer loop
      vertex 87.8575 12.8377 0
      vertex 86.4059 11.4402 10
      vertex 86.4059 11.4402 0
    endloop
  endfacet
  facet normal 0.693555 -0.720404 0
    outer loop
      vertex 87.8575 12.8377 0
      vertex 87.8575 12.8377 10
      vertex 86.4059 11.4402 10
    endloop
  endfacet
  facet normal 0.666514 -0.745493 0
    outer loop
      vertex 89.5084 14.3137 0
      vertex 87.8575 12.8377 10
      vertex 87.8575 12.8377 0
    endloop
  endfacet
  facet normal 0.666514 -0.745493 0
    outer loop
      vertex 89.5084 14.3137 0
      vertex 89.5084 14.3137 10
      vertex 87.8575 12.8377 10
    endloop
  endfacet
  facet normal 0.643244 -0.765661 0
    outer loop
      vertex 91.3585 15.868 0
      vertex 89.5084 14.3137 10
      vertex 89.5084 14.3137 0
    endloop
  endfacet
  facet normal 0.643244 -0.765661 0
    outer loop
      vertex 91.3585 15.868 0
      vertex 91.3585 15.868 10
      vertex 89.5084 14.3137 10
    endloop
  endfacet
  facet normal 0.637268 -0.770642 0
    outer loop
      vertex 94.6156 18.5614 0
      vertex 91.3585 15.868 10
      vertex 91.3585 15.868 0
    endloop
  endfacet
  facet normal 0.637268 -0.770642 0
    outer loop
      vertex 94.6156 18.5614 0
      vertex 94.6156 18.5614 10
      vertex 91.3585 15.868 10
    endloop
  endfacet
  facet normal 0.65319 -0.757194 0
    outer loop
      vertex 97.3006 20.8776 0
      vertex 94.6156 18.5614 10
      vertex 94.6156 18.5614 0
    endloop
  endfacet
  facet normal 0.65319 -0.757194 0
    outer loop
      vertex 97.3006 20.8776 0
      vertex 97.3006 20.8776 10
      vertex 94.6156 18.5614 10
    endloop
  endfacet
  facet normal 0.676173 -0.736743 0
    outer loop
      vertex 99.4134 22.8167 0
      vertex 97.3006 20.8776 10
      vertex 97.3006 20.8776 0
    endloop
  endfacet
  facet normal 0.676173 -0.736743 0
    outer loop
      vertex 99.4134 22.8167 0
      vertex 99.4134 22.8167 10
      vertex 97.3006 20.8776 10
    endloop
  endfacet
  facet normal 0.711922 -0.702258 0
    outer loop
      vertex 100.954 24.3785 0
      vertex 99.4134 22.8167 10
      vertex 99.4134 22.8167 0
    endloop
  endfacet
  facet normal 0.711922 -0.702258 0
    outer loop
      vertex 100.954 24.3785 0
      vertex 100.954 24.3785 10
      vertex 99.4134 22.8167 10
    endloop
  endfacet
  facet normal 0.759264 -0.650782 0
    outer loop
      vertex 102.131 25.7517 0
      vertex 100.954 24.3785 10
      vertex 100.954 24.3785 0
    endloop
  endfacet
  facet normal 0.759264 -0.650782 0
    outer loop
      vertex 102.131 25.7517 0
      vertex 102.131 25.7517 10
      vertex 100.954 24.3785 10
    endloop
  endfacet
  facet normal 0.801951 -0.59739 0
    outer loop
      vertex 103.154 27.125 0
      vertex 102.131 25.7517 10
      vertex 102.131 25.7517 0
    endloop
  endfacet
  facet normal 0.801951 -0.59739 0
    outer loop
      vertex 103.154 27.125 0
      vertex 103.154 27.125 10
      vertex 102.131 25.7517 10
    endloop
  endfacet
  facet normal 0.845568 -0.533868 0
    outer loop
      vertex 104.021 28.4982 0
      vertex 103.154 27.125 10
      vertex 103.154 27.125 0
    endloop
  endfacet
  facet normal 0.845568 -0.533868 0
    outer loop
      vertex 104.021 28.4982 0
      vertex 104.021 28.4982 10
      vertex 103.154 27.125 10
    endloop
  endfacet
  facet normal 0.887512 -0.460785 0
    outer loop
      vertex 104.734 29.8715 0
      vertex 104.021 28.4982 10
      vertex 104.021 28.4982 0
    endloop
  endfacet
  facet normal 0.887512 -0.460785 0
    outer loop
      vertex 104.734 29.8715 0
      vertex 104.734 29.8715 10
      vertex 104.021 28.4982 10
    endloop
  endfacet
  facet normal 0.926869 -0.375384 0
    outer loop
      vertex 105.291 31.2468 0
      vertex 104.734 29.8715 10
      vertex 104.734 29.8715 0
    endloop
  endfacet
  facet normal 0.926869 -0.375384 0
    outer loop
      vertex 105.291 31.2468 0
      vertex 105.291 31.2468 10
      vertex 104.734 29.8715 10
    endloop
  endfacet
  facet normal 0.961002 -0.276542 0
    outer loop
      vertex 105.688 32.6264 0
      vertex 105.291 31.2468 10
      vertex 105.291 31.2468 0
    endloop
  endfacet
  facet normal 0.961002 -0.276542 0
    outer loop
      vertex 105.688 32.6264 0
      vertex 105.688 32.6264 10
      vertex 105.291 31.2468 10
    endloop
  endfacet
  facet normal 0.985409 -0.170205 0
    outer loop
      vertex 105.927 34.0101 0
      vertex 105.688 32.6264 10
      vertex 105.688 32.6264 0
    endloop
  endfacet
  facet normal 0.985409 -0.170205 0
    outer loop
      vertex 105.927 34.0101 0
      vertex 105.927 34.0101 10
      vertex 105.688 32.6264 10
    endloop
  endfacet
  facet normal 0.998384 -0.0568285 0
    outer loop
      vertex 106.006 35.398 0
      vertex 105.927 34.0101 10
      vertex 105.927 34.0101 0
    endloop
  endfacet
  facet normal 0.998384 -0.0568285 0
    outer loop
      vertex 106.006 35.398 0
      vertex 106.006 35.398 10
      vertex 105.927 34.0101 10
    endloop
  endfacet
  facet normal 0.996641 0.0818908 0
    outer loop
      vertex 105.763 38.3554 0
      vertex 106.006 35.398 10
      vertex 106.006 35.398 0
    endloop
  endfacet
  facet normal 0.996641 0.0818908 -0
    outer loop
      vertex 105.763 38.3554 0
      vertex 105.763 38.3554 10
      vertex 106.006 35.398 10
    endloop
  endfacet
  facet normal 0.962942 0.269707 0
    outer loop
      vertex 105.035 40.9546 0
      vertex 105.763 38.3554 10
      vertex 105.763 38.3554 0
    endloop
  endfacet
  facet normal 0.962942 0.269707 -0
    outer loop
      vertex 105.035 40.9546 0
      vertex 105.035 40.9546 10
      vertex 105.763 38.3554 10
    endloop
  endfacet
  facet normal 0.879436 0.476018 0
    outer loop
      vertex 103.822 43.1956 0
      vertex 105.035 40.9546 10
      vertex 105.035 40.9546 0
    endloop
  endfacet
  facet normal 0.879436 0.476018 -0
    outer loop
      vertex 103.822 43.1956 0
      vertex 103.822 43.1956 10
      vertex 105.035 40.9546 10
    endloop
  endfacet
  facet normal 0.742433 0.669921 0
    outer loop
      vertex 102.123 45.0785 0
      vertex 103.822 43.1956 10
      vertex 103.822 43.1956 0
    endloop
  endfacet
  facet normal 0.742433 0.669921 -0
    outer loop
      vertex 102.123 45.0785 0
      vertex 102.123 45.0785 10
      vertex 103.822 43.1956 10
    endloop
  endfacet
  facet normal 0.569939 0.821687 0
    outer loop
      vertex 99.9737 46.5693 0
      vertex 102.123 45.0785 10
      vertex 102.123 45.0785 0
    endloop
  endfacet
  facet normal 0.569939 0.821687 -0
    outer loop
      vertex 99.9737 46.5693 0
      vertex 99.9737 46.5693 10
      vertex 102.123 45.0785 10
    endloop
  endfacet
  facet normal 0.383123 0.923697 0
    outer loop
      vertex 97.4065 47.6341 0
      vertex 99.9737 46.5693 10
      vertex 99.9737 46.5693 0
    endloop
  endfacet
  facet normal 0.383123 0.923697 -0
    outer loop
      vertex 97.4065 47.6341 0
      vertex 97.4065 47.6341 10
      vertex 99.9737 46.5693 10
    endloop
  endfacet
  facet normal 0.20931 0.977849 0
    outer loop
      vertex 94.4217 48.273 0
      vertex 97.4065 47.6341 10
      vertex 97.4065 47.6341 0
    endloop
  endfacet
  facet normal 0.20931 0.977849 -0
    outer loop
      vertex 94.4217 48.273 0
      vertex 94.4217 48.273 10
      vertex 97.4065 47.6341 10
    endloop
  endfacet
  facet normal 0.0624842 0.998046 0
    outer loop
      vertex 91.0195 48.486 0
      vertex 94.4217 48.273 10
      vertex 94.4217 48.273 0
    endloop
  endfacet
  facet normal 0.0624842 0.998046 -0
    outer loop
      vertex 91.0195 48.486 0
      vertex 91.0195 48.486 10
      vertex 94.4217 48.273 10
    endloop
  endfacet
  facet normal -0.0673711 0.997728 0
    outer loop
      vertex 87.8799 48.274 0
      vertex 91.0195 48.486 10
      vertex 91.0195 48.486 0
    endloop
  endfacet
  facet normal -0.0673711 0.997728 0
    outer loop
      vertex 87.8799 48.274 0
      vertex 87.8799 48.274 10
      vertex 91.0195 48.486 10
    endloop
  endfacet
  facet normal -0.218407 0.975858 0
    outer loop
      vertex 85.0391 47.6382 0
      vertex 87.8799 48.274 10
      vertex 87.8799 48.274 0
    endloop
  endfacet
  facet normal -0.218407 0.975858 0
    outer loop
      vertex 85.0391 47.6382 0
      vertex 85.0391 47.6382 10
      vertex 87.8799 48.274 10
    endloop
  endfacet
  facet normal -0.384749 0.923021 0
    outer loop
      vertex 82.4971 46.5786 0
      vertex 85.0391 47.6382 10
      vertex 85.0391 47.6382 0
    endloop
  endfacet
  facet normal -0.384749 0.923021 0
    outer loop
      vertex 82.4971 46.5786 0
      vertex 82.4971 46.5786 10
      vertex 85.0391 47.6382 10
    endloop
  endfacet
  facet normal -0.551659 0.83407 0
    outer loop
      vertex 80.254 45.095 0
      vertex 82.4971 46.5786 10
      vertex 82.4971 46.5786 0
    endloop
  endfacet
  facet normal -0.551659 0.83407 0
    outer loop
      vertex 80.254 45.095 0
      vertex 80.254 45.095 10
      vertex 82.4971 46.5786 10
    endloop
  endfacet
  facet normal -0.700819 0.713339 0
    outer loop
      vertex 78.3796 43.2535 0
      vertex 80.254 45.095 10
      vertex 80.254 45.095 0
    endloop
  endfacet
  facet normal -0.700819 0.713339 0
    outer loop
      vertex 78.3796 43.2535 0
      vertex 78.3796 43.2535 10
      vertex 80.254 45.095 10
    endloop
  endfacet
  facet normal -0.829692 0.558221 0
    outer loop
      vertex 76.9439 41.1196 0
      vertex 78.3796 43.2535 10
      vertex 78.3796 43.2535 0
    endloop
  endfacet
  facet normal -0.829692 0.558221 0
    outer loop
      vertex 76.9439 41.1196 0
      vertex 76.9439 41.1196 10
      vertex 78.3796 43.2535 10
    endloop
  endfacet
  facet normal -0.924942 0.380109 0
    outer loop
      vertex 75.9468 38.6933 0
      vertex 76.9439 41.1196 10
      vertex 76.9439 41.1196 0
    endloop
  endfacet
  facet normal -0.924942 0.380109 0
    outer loop
      vertex 75.9468 38.6933 0
      vertex 75.9468 38.6933 10
      vertex 76.9439 41.1196 10
    endloop
  endfacet
  facet normal -0.97956 0.201151 0
    outer loop
      vertex 75.3885 35.9745 0
      vertex 75.9468 38.6933 10
      vertex 75.9468 38.6933 0
    endloop
  endfacet
  facet normal -0.97956 0.201151 0
    outer loop
      vertex 75.3885 35.9745 0
      vertex 75.3885 35.9745 10
      vertex 75.9468 38.6933 10
    endloop
  endfacet
  facet normal -0.0920107 -0.995758 0
    outer loop
      vertex 81.6275 35.398 0
      vertex 75.3885 35.9745 10
      vertex 75.3885 35.9745 0
    endloop
  endfacet
  facet normal -0.0920107 -0.995758 0
    outer loop
      vertex 81.6275 35.398 0
      vertex 81.6275 35.398 10
      vertex 75.3885 35.9745 10
    endloop
  endfacet
  facet normal 0.981726 -0.190299 0
    outer loop
      vertex 81.9781 37.2067 0
      vertex 81.6275 35.398 10
      vertex 81.6275 35.398 0
    endloop
  endfacet
  facet normal 0.981726 -0.190299 0
    outer loop
      vertex 81.9781 37.2067 0
      vertex 81.9781 37.2067 10
      vertex 81.6275 35.398 10
    endloop
  endfacet
  facet normal 0.933746 -0.357935 0
    outer loop
      vertex 82.5894 38.8014 0
      vertex 81.9781 37.2067 10
      vertex 81.9781 37.2067 0
    endloop
  endfacet
  facet normal 0.933746 -0.357935 0
    outer loop
      vertex 82.5894 38.8014 0
      vertex 82.5894 38.8014 10
      vertex 81.9781 37.2067 10
    endloop
  endfacet
  facet normal 0.845505 -0.533968 0
    outer loop
      vertex 83.4613 40.182 0
      vertex 82.5894 38.8014 10
      vertex 82.5894 38.8014 0
    endloop
  endfacet
  facet normal 0.845505 -0.533968 0
    outer loop
      vertex 83.4613 40.182 0
      vertex 83.4613 40.182 10
      vertex 82.5894 38.8014 10
    endloop
  endfacet
  facet normal 0.717424 -0.696636 0
    outer loop
      vertex 84.594 41.3485 0
      vertex 83.4613 40.182 10
      vertex 83.4613 40.182 0
    endloop
  endfacet
  facet normal 0.717424 -0.696636 0
    outer loop
      vertex 84.594 41.3485 0
      vertex 84.594 41.3485 10
      vertex 83.4613 40.182 10
    endloop
  endfacet
  facet normal 0.566529 -0.824042 0
    outer loop
      vertex 85.9428 42.2758 0
      vertex 84.594 41.3485 10
      vertex 84.594 41.3485 0
    endloop
  endfacet
  facet normal 0.566529 -0.824042 0
    outer loop
      vertex 85.9428 42.2758 0
      vertex 85.9428 42.2758 10
      vertex 84.594 41.3485 10
    endloop
  endfacet
  facet normal 0.399319 -0.916812 0
    outer loop
      vertex 87.4634 42.9381 0
      vertex 85.9428 42.2758 10
      vertex 85.9428 42.2758 0
    endloop
  endfacet
  facet normal 0.399319 -0.916812 0
    outer loop
      vertex 87.4634 42.9381 0
      vertex 87.4634 42.9381 10
      vertex 85.9428 42.2758 10
    endloop
  endfacet
  facet normal 0.228622 -0.973515 0
    outer loop
      vertex 89.1556 43.3355 0
      vertex 87.4634 42.9381 10
      vertex 87.4634 42.9381 0
    endloop
  endfacet
  facet normal 0.228622 -0.973515 0
    outer loop
      vertex 89.1556 43.3355 0
      vertex 89.1556 43.3355 10
      vertex 87.4634 42.9381 10
    endloop
  endfacet
  facet normal 0.0709086 -0.997483 0
    outer loop
      vertex 91.0195 43.468 0
      vertex 89.1556 43.3355 10
      vertex 89.1556 43.3355 0
    endloop
  endfacet
  facet normal 0.0709086 -0.997483 0
    outer loop
      vertex 91.0195 43.468 0
      vertex 91.0195 43.468 10
      vertex 89.1556 43.3355 10
    endloop
  endfacet
  facet normal -0.0697662 -0.997563 0
    outer loop
      vertex 92.9584 43.3324 0
      vertex 91.0195 43.468 10
      vertex 91.0195 43.468 0
    endloop
  endfacet
  facet normal -0.0697662 -0.997563 0
    outer loop
      vertex 92.9584 43.3324 0
      vertex 92.9584 43.3324 10
      vertex 91.0195 43.468 10
    endloop
  endfacet
  facet normal -0.23094 -0.972968 0
    outer loop
      vertex 94.6727 42.9255 0
      vertex 92.9584 43.3324 10
      vertex 92.9584 43.3324 0
    endloop
  endfacet
  facet normal -0.23094 -0.972968 0
    outer loop
      vertex 94.6727 42.9255 0
      vertex 94.6727 42.9255 10
      vertex 92.9584 43.3324 10
    endloop
  endfacet
  facet normal -0.414291 -0.910145 0
    outer loop
      vertex 96.1624 42.2474 0
      vertex 94.6727 42.9255 10
      vertex 94.6727 42.9255 0
    endloop
  endfacet
  facet normal -0.414291 -0.910145 0
    outer loop
      vertex 96.1624 42.2474 0
      vertex 96.1624 42.2474 10
      vertex 94.6727 42.9255 10
    endloop
  endfacet
  facet normal -0.600233 -0.799825 0
    outer loop
      vertex 97.4275 41.298 0
      vertex 96.1624 42.2474 10
      vertex 96.1624 42.2474 0
    endloop
  endfacet
  facet normal -0.600233 -0.799825 0
    outer loop
      vertex 97.4275 41.298 0
      vertex 97.4275 41.298 10
      vertex 96.1624 42.2474 10
    endloop
  endfacet
  facet normal -0.76415 -0.645039 0
    outer loop
      vertex 98.4364 40.1028 0
      vertex 97.4275 41.298 10
      vertex 97.4275 41.298 0
    endloop
  endfacet
  facet normal -0.76415 -0.645039 0
    outer loop
      vertex 98.4364 40.1028 0
      vertex 98.4364 40.1028 10
      vertex 97.4275 41.298 10
    endloop
  endfacet
  facet normal -0.891194 -0.453623 0
    outer loop
      vertex 99.157 38.6871 0
      vertex 98.4364 40.1028 10
      vertex 98.4364 40.1028 0
    endloop
  endfacet
  facet normal -0.891194 -0.453623 0
    outer loop
      vertex 99.157 38.6871 0
      vertex 99.157 38.6871 10
      vertex 98.4364 40.1028 10
    endloop
  endfacet
  facet normal -0.966805 -0.255514 0
    outer loop
      vertex 99.5894 37.051 0
      vertex 99.157 38.6871 10
      vertex 99.157 38.6871 0
    endloop
  endfacet
  facet normal -0.966805 -0.255514 0
    outer loop
      vertex 99.5894 37.051 0
      vertex 99.5894 37.051 10
      vertex 99.157 38.6871 10
    endloop
  endfacet
  facet normal -0.997001 -0.0773864 0
    outer loop
      vertex 99.7335 35.1945 0
      vertex 99.5894 37.051 10
      vertex 99.5894 37.051 0
    endloop
  endfacet
  facet normal -0.997001 -0.0773864 0
    outer loop
      vertex 99.7335 35.1945 0
      vertex 99.7335 35.1945 10
      vertex 99.5894 37.051 10
    endloop
  endfacet
  facet normal -0.998267 0.0588539 0
    outer loop
      vertex 99.6498 33.7748 0
      vertex 99.7335 35.1945 10
      vertex 99.7335 35.1945 0
    endloop
  endfacet
  facet normal -0.998267 0.0588539 0
    outer loop
      vertex 99.6498 33.7748 0
      vertex 99.6498 33.7748 10
      vertex 99.7335 35.1945 10
    endloop
  endfacet
  facet normal -0.982963 0.183803 0
    outer loop
      vertex 99.3986 32.4314 0
      vertex 99.6498 33.7748 10
      vertex 99.6498 33.7748 0
    endloop
  endfacet
  facet normal -0.982963 0.183803 0
    outer loop
      vertex 99.3986 32.4314 0
      vertex 99.3986 32.4314 10
      vertex 99.6498 33.7748 10
    endloop
  endfacet
  facet normal -0.949541 0.313642 0
    outer loop
      vertex 98.98 31.1641 0
      vertex 99.3986 32.4314 10
      vertex 99.3986 32.4314 0
    endloop
  endfacet
  facet normal -0.949541 0.313642 0
    outer loop
      vertex 98.98 31.1641 0
      vertex 98.98 31.1641 10
      vertex 99.3986 32.4314 10
    endloop
  endfacet
  facet normal -0.897286 0.441449 0
    outer loop
      vertex 98.394 29.973 0
      vertex 98.98 31.1641 10
      vertex 98.98 31.1641 0
    endloop
  endfacet
  facet normal -0.897286 0.441449 0
    outer loop
      vertex 98.394 29.973 0
      vertex 98.394 29.973 10
      vertex 98.98 31.1641 10
    endloop
  endfacet
  facet normal -0.844941 0.53486 0
    outer loop
      vertex 97.6723 28.8329 0
      vertex 98.394 29.973 10
      vertex 98.394 29.973 0
    endloop
  endfacet
  facet normal -0.844941 0.53486 0
    outer loop
      vertex 97.6723 28.8329 0
      vertex 97.6723 28.8329 10
      vertex 98.394 29.973 10
    endloop
  endfacet
  facet normal -0.803662 0.595086 0
    outer loop
      vertex 96.8469 27.7182 0
      vertex 97.6723 28.8329 10
      vertex 97.6723 28.8329 0
    endloop
  endfacet
  facet normal -0.803662 0.595086 0
    outer loop
      vertex 96.8469 27.7182 0
      vertex 96.8469 27.7182 10
      vertex 97.6723 28.8329 10
    endloop
  endfacet
  facet normal -0.760768 0.649024 0
    outer loop
      vertex 95.9176 26.6289 0
      vertex 96.8469 27.7182 10
      vertex 96.8469 27.7182 0
    endloop
  endfacet
  facet normal -0.760768 0.649024 0
    outer loop
      vertex 95.9176 26.6289 0
      vertex 95.9176 26.6289 10
      vertex 96.8469 27.7182 10
    endloop
  endfacet
  facet normal -0.717415 0.696646 0
    outer loop
      vertex 94.8845 25.565 0
      vertex 95.9176 26.6289 10
      vertex 95.9176 26.6289 0
    endloop
  endfacet
  facet normal -0.717415 0.696646 0
    outer loop
      vertex 94.8845 25.565 0
      vertex 94.8845 25.565 10
      vertex 95.9176 26.6289 10
    endloop
  endfacet
  facet normal -0.68497 0.728571 0
    outer loop
      vertex 93.7666 24.514 0
      vertex 94.8845 25.565 10
      vertex 94.8845 25.565 0
    endloop
  endfacet
  facet normal -0.68497 0.728571 0
    outer loop
      vertex 93.7666 24.514 0
      vertex 93.7666 24.514 10
      vertex 94.8845 25.565 10
    endloop
  endfacet
  facet normal -0.664011 0.747723 0
    outer loop
      vertex 92.5831 23.463 0
      vertex 93.7666 24.514 10
      vertex 93.7666 24.514 0
    endloop
  endfacet
  facet normal -0.664011 0.747723 0
    outer loop
      vertex 92.5831 23.463 0
      vertex 92.5831 23.463 10
      vertex 93.7666 24.514 10
    endloop
  endfacet
  facet normal -0.643792 0.7652 0
    outer loop
      vertex 91.3339 22.412 0
      vertex 92.5831 23.463 10
      vertex 92.5831 23.463 0
    endloop
  endfacet
  facet normal -0.643792 0.7652 0
    outer loop
      vertex 91.3339 22.412 0
      vertex 91.3339 22.412 10
      vertex 92.5831 23.463 10
    endloop
  endfacet
  facet normal -0.624362 0.781135 0
    outer loop
      vertex 90.019 21.361 0
      vertex 91.3339 22.412 10
      vertex 91.3339 22.412 0
    endloop
  endfacet
  facet normal -0.624362 0.781135 0
    outer loop
      vertex 90.019 21.361 0
      vertex 90.019 21.361 10
      vertex 91.3339 22.412 10
    endloop
  endfacet
  facet normal -0.622069 0.782962 0
    outer loop
      vertex 88.6681 20.2877 0
      vertex 90.019 21.361 10
      vertex 90.019 21.361 0
    endloop
  endfacet
  facet normal -0.622069 0.782962 0
    outer loop
      vertex 88.6681 20.2877 0
      vertex 88.6681 20.2877 10
      vertex 90.019 21.361 10
    endloop
  endfacet
  facet normal -0.635687 0.771947 0
    outer loop
      vertex 87.3107 19.1699 0
      vertex 88.6681 20.2877 10
      vertex 88.6681 20.2877 0
    endloop
  endfacet
  facet normal -0.635687 0.771947 0
    outer loop
      vertex 87.3107 19.1699 0
      vertex 87.3107 19.1699 10
      vertex 88.6681 20.2877 10
    endloop
  endfacet
  facet normal -0.64873 0.761019 0
    outer loop
      vertex 85.9471 18.0075 0
      vertex 87.3107 19.1699 10
      vertex 87.3107 19.1699 0
    endloop
  endfacet
  facet normal -0.64873 0.761019 0
    outer loop
      vertex 85.9471 18.0075 0
      vertex 85.9471 18.0075 10
      vertex 87.3107 19.1699 10
    endloop
  endfacet
  facet normal -0.661033 0.750357 0
    outer loop
      vertex 84.577 16.8005 0
      vertex 85.9471 18.0075 10
      vertex 85.9471 18.0075 0
    endloop
  endfacet
  facet normal -0.661033 0.750357 0
    outer loop
      vertex 84.577 16.8005 0
      vertex 84.577 16.8005 10
      vertex 85.9471 18.0075 10
    endloop
  endfacet
  facet normal -0.681851 0.731491 0
    outer loop
      vertex 83.2198 15.5354 0
      vertex 84.577 16.8005 10
      vertex 84.577 16.8005 0
    endloop
  endfacet
  facet normal -0.681851 0.731491 0
    outer loop
      vertex 83.2198 15.5354 0
      vertex 83.2198 15.5354 10
      vertex 84.577 16.8005 10
    endloop
  endfacet
  facet normal -0.710234 0.703966 0
    outer loop
      vertex 81.8944 14.1982 0
      vertex 83.2198 15.5354 10
      vertex 83.2198 15.5354 0
    endloop
  endfacet
  facet normal -0.710234 0.703966 0
    outer loop
      vertex 81.8944 14.1982 0
      vertex 81.8944 14.1982 10
      vertex 83.2198 15.5354 10
    endloop
  endfacet
  facet normal -0.736648 0.676276 0
    outer loop
      vertex 80.6006 12.7889 0
      vertex 81.8944 14.1982 10
      vertex 81.8944 14.1982 0
    endloop
  endfacet
  facet normal -0.736648 0.676276 0
    outer loop
      vertex 80.6006 12.7889 0
      vertex 80.6006 12.7889 10
      vertex 81.8944 14.1982 10
    endloop
  endfacet
  facet normal -0.761201 0.648516 0
    outer loop
      vertex 79.3385 11.3075 0
      vertex 80.6006 12.7889 10
      vertex 80.6006 12.7889 0
    endloop
  endfacet
  facet normal -0.761201 0.648516 0
    outer loop
      vertex 79.3385 11.3075 0
      vertex 79.3385 11.3075 10
      vertex 80.6006 12.7889 10
    endloop
  endfacet
  facet normal -0.795946 0.605368 0
    outer loop
      vertex 78.1402 9.73196 0
      vertex 79.3385 11.3075 10
      vertex 79.3385 11.3075 0
    endloop
  endfacet
  facet normal -0.795946 0.605368 0
    outer loop
      vertex 78.1402 9.73196 0
      vertex 78.1402 9.73196 10
      vertex 79.3385 11.3075 10
    endloop
  endfacet
  facet normal -0.837732 0.546081 0
    outer loop
      vertex 77.0372 8.03987 0
      vertex 78.1402 9.73196 10
      vertex 78.1402 9.73196 0
    endloop
  endfacet
  facet normal -0.837732 0.546081 0
    outer loop
      vertex 77.0372 8.03987 0
      vertex 77.0372 8.03987 10
      vertex 78.1402 9.73196 10
    endloop
  endfacet
  facet normal -0.873604 0.486637 0
    outer loop
      vertex 76.0297 6.23122 0
      vertex 77.0372 8.03987 10
      vertex 77.0372 8.03987 0
    endloop
  endfacet
  facet normal -0.873604 0.486637 0
    outer loop
      vertex 76.0297 6.23122 0
      vertex 76.0297 6.23122 10
      vertex 77.0372 8.03987 10
    endloop
  endfacet
  facet normal -0.903692 0.428184 0
    outer loop
      vertex 75.1175 4.306 0
      vertex 76.0297 6.23122 10
      vertex 76.0297 6.23122 0
    endloop
  endfacet
  facet normal -0.903692 0.428184 0
    outer loop
      vertex 75.1175 4.306 0
      vertex 75.1175 4.306 10
      vertex 76.0297 6.23122 10
    endloop
  endfacet
  facet normal -1 0 0
    outer loop
      vertex 75.1175 0 0
      vertex 75.1175 4.306 10
      vertex 75.1175 4.306 0
    endloop
  endfacet
  facet normal -1 0 0
    outer loop
      vertex 75.1175 0 0
      vertex 75.1175 0 10
      vertex 75.1175 4.306 10
    endloop
  endfacet
  facet normal 0 -1 0
    outer loop
      vertex 106.752 0 0
      vertex 75.1175 0 10
      vertex 75.1175 0 0
    endloop
  endfacet
  facet normal 0 -1 0
    outer loop
      vertex 106.752 0 0
      vertex 106.752 0 10
      vertex 75.1175 0 10
    endloop
  endfacet
  facet normal 1 0 0
    outer loop
      vertex 106.752 5.1875 0
      vertex 106.752 0 10
      vertex 106.752 0 0
    endloop
  endfacet
  facet normal 1 0 -0
    outer loop
      vertex 106.752 5.1875 0
      vertex 106.752 5.1875 10
      vertex 106.752 0 10
    endloop
  endfacet
  facet normal 0 1 0
    outer loop
      vertex 57.5077 5.1875 0
      vertex 69.1372 5.1875 10
      vertex 69.1372 5.1875 0
    endloop
  endfacet
  facet normal 0 1 0
    outer loop
      vertex 57.5077 5.1875 0
      vertex 57.5077 5.1875 10
      vertex 69.1372 5.1875 10
    endloop
  endfacet
  facet normal 1 0 0
    outer loop
      vertex 57.5077 47.774 0
      vertex 57.5077 5.1875 10
      vertex 57.5077 5.1875 0
    endloop
  endfacet
  facet normal 1 0 -0
    outer loop
      vertex 57.5077 47.774 0
      vertex 57.5077 47.774 10
      vertex 57.5077 5.1875 10
    endloop
  endfacet
  facet normal 0 1 0
    outer loop
      vertex 51.8792 47.774 0
      vertex 57.5077 47.774 10
      vertex 57.5077 47.774 0
    endloop
  endfacet
  facet normal 0 1 0
    outer loop
      vertex 51.8792 47.774 0
      vertex 51.8792 47.774 10
      vertex 57.5077 47.774 10
    endloop
  endfacet
  facet normal -0.566625 0.823976 0
    outer loop
      vertex 40.5882 40.0095 0
      vertex 51.8792 47.774 10
      vertex 51.8792 47.774 0
    endloop
  endfacet
  facet normal -0.566625 0.823976 0
    outer loop
      vertex 40.5882 40.0095 0
      vertex 40.5882 40.0095 10
      vertex 51.8792 47.774 10
    endloop
  endfacet
  facet normal -1 0 0
    outer loop
      vertex 40.5882 34.2455 0
      vertex 40.5882 40.0095 10
      vertex 40.5882 40.0095 0
    endloop
  endfacet
  facet normal -1 0 0
    outer loop
      vertex 40.5882 34.2455 0
      vertex 40.5882 34.2455 10
      vertex 40.5882 40.0095 10
    endloop
  endfacet
  facet normal 0.580992 -0.813909 0
    outer loop
      vertex 51.3702 41.942 0
      vertex 40.5882 34.2455 10
      vertex 40.5882 34.2455 0
    endloop
  endfacet
  facet normal 0.580992 -0.813909 0
    outer loop
      vertex 51.3702 41.942 0
      vertex 51.3702 41.942 10
      vertex 40.5882 34.2455 10
    endloop
  endfacet
  facet normal -1 0 0
    outer loop
      vertex 51.3702 5.1875 0
      vertex 51.3702 41.942 10
      vertex 51.3702 41.942 0
    endloop
  endfacet
  facet normal -1 0 0
    outer loop
      vertex 51.3702 5.1875 0
      vertex 51.3702 5.1875 10
      vertex 51.3702 41.942 10
    endloop
  endfacet
  facet normal 0 1 0
    outer loop
      vertex 39.1982 5.1875 0
      vertex 51.3702 5.1875 10
      vertex 51.3702 5.1875 0
    endloop
  endfacet
  facet normal 0 1 0
    outer loop
      vertex 39.1982 5.1875 0
      vertex 39.1982 5.1875 10
      vertex 51.3702 5.1875 10
    endloop
  endfacet
  facet normal -1 0 0
    outer loop
      vertex 39.1982 0 0
      vertex 39.1982 5.1875 10
      vertex 39.1982 5.1875 0
    endloop
  endfacet
  facet normal -1 0 0
    outer loop
      vertex 39.1982 0 0
      vertex 39.1982 0 10
      vertex 39.1982 5.1875 10
    endloop
  endfacet
  facet normal 0 -1 0
    outer loop
      vertex 69.1372 0 0
      vertex 39.1982 0 10
      vertex 39.1982 0 0
    endloop
  endfacet
  facet normal 0 -1 0
    outer loop
      vertex 69.1372 0 0
      vertex 69.1372 0 10
      vertex 39.1982 0 10
    endloop
  endfacet
  facet normal 1 0 0
    outer loop
      vertex 69.1372 5.1875 0
      vertex 69.1372 0 10
      vertex 69.1372 0 0
    endloop
  endfacet
  facet normal 1 0 -0
    outer loop
      vertex 69.1372 5.1875 0
      vertex 69.1372 5.1875 10
      vertex 69.1372 0 10
    endloop
  endfacet
  facet normal 0 1 0
    outer loop
      vertex 28.0065 36.6865 0
      vertex 34.4825 36.6865 10
      vertex 34.4825 36.6865 0
    endloop
  endfacet
  facet normal 0 1 0
    outer loop
      vertex 28.0065 36.6865 0
      vertex 28.0065 36.6865 10
      vertex 34.4825 36.6865 10
    endloop
  endfacet
  facet normal -0.944314 0.329045 0
    outer loop
      vertex 19.6655 12.749 0
      vertex 28.0065 36.6865 10
      vertex 28.0065 36.6865 0
    endloop
  endfacet
  facet normal -0.944314 0.329045 0
    outer loop
      vertex 19.6655 12.749 0
      vertex 19.6655 12.749 10
      vertex 28.0065 36.6865 10
    endloop
  endfacet
  facet normal -0.949511 0.313734 0
    outer loop
      vertex 18.3435 8.74799 0
      vertex 19.6655 12.749 10
      vertex 19.6655 12.749 0
    endloop
  endfacet
  facet normal -0.949511 0.313734 0
    outer loop
      vertex 18.3435 8.74799 0
      vertex 18.3435 8.74799 10
      vertex 19.6655 12.749 10
    endloop
  endfacet
  facet normal -0.958032 0.286661 0
    outer loop
      vertex 17.1565 4.78099 0
      vertex 18.3435 8.74799 10
      vertex 18.3435 8.74799 0
    endloop
  endfacet
  facet normal -0.958032 0.286661 0
    outer loop
      vertex 17.1565 4.78099 0
      vertex 17.1565 4.78099 10
      vertex 18.3435 8.74799 10
    endloop
  endfacet
  facet normal 0.961604 0.27444 0
    outer loop
      vertex 16.2983 7.78802 0
      vertex 17.1565 4.78099 10
      vertex 17.1565 4.78099 0
    endloop
  endfacet
  facet normal 0.961604 0.27444 -0
    outer loop
      vertex 16.2983 7.78802 0
      vertex 16.2983 7.78802 10
      vertex 17.1565 4.78099 10
    endloop
  endfacet
  facet normal 0.960775 0.277329 0
    outer loop
      vertex 15.6224 10.1296 0
      vertex 16.2983 7.78802 10
      vertex 16.2983 7.78802 0
    endloop
  endfacet
  facet normal 0.960775 0.277329 -0
    outer loop
      vertex 15.6224 10.1296 0
      vertex 15.6224 10.1296 10
      vertex 16.2983 7.78802 10
    endloop
  endfacet
  facet normal 0.959241 0.282588 0
    outer loop
      vertex 15.1286 11.8058 0
      vertex 15.6224 10.1296 10
      vertex 15.6224 10.1296 0
    endloop
  endfacet
  facet normal 0.959241 0.282588 -0
    outer loop
      vertex 15.1286 11.8058 0
      vertex 15.1286 11.8058 10
      vertex 15.6224 10.1296 10
    endloop
  endfacet
  facet normal 0.955615 0.294617 0
    outer loop
      vertex 14.817 12.8165 0
      vertex 15.1286 11.8058 10
      vertex 15.1286 11.8058 0
    endloop
  endfacet
  facet normal 0.955615 0.294617 -0
    outer loop
      vertex 14.817 12.8165 0
      vertex 14.817 12.8165 10
      vertex 15.1286 11.8058 10
    endloop
  endfacet
  facet normal 0.947331 0.320255 0
    outer loop
      vertex 6.7475 36.6865 0
      vertex 14.817 12.8165 10
      vertex 14.817 12.8165 0
    endloop
  endfacet
  facet normal 0.947331 0.320255 -0
    outer loop
      vertex 6.7475 36.6865 0
      vertex 6.7475 36.6865 10
      vertex 14.817 12.8165 10
    endloop
  endfacet
  facet normal 0 1 0
    outer loop
      vertex 0.237488 36.6865 0
      vertex 6.7475 36.6865 10
      vertex 6.7475 36.6865 0
    endloop
  endfacet
  facet normal 0 1 0
    outer loop
      vertex 0.237488 36.6865 0
      vertex 0.237488 36.6865 10
      vertex 6.7475 36.6865 10
    endloop
  endfacet
  facet normal -0.939921 -0.341392 0
    outer loop
      vertex 13.5625 0 0
      vertex 0.237488 36.6865 10
      vertex 0.237488 36.6865 0
    endloop
  endfacet
  facet normal -0.939921 -0.341392 0
    outer loop
      vertex 13.5625 0 0
      vertex 13.5625 0 10
      vertex 0.237488 36.6865 10
    endloop
  endfacet
  facet normal 0 -1 0
    outer loop
      vertex 20.7845 0 0
      vertex 13.5625 0 10
      vertex 13.5625 0 0
    endloop
  endfacet
  facet normal 0 -1 0
    outer loop
      vertex 20.7845 0 0
      vertex 20.7845 0 10
      vertex 13.5625 0 10
    endloop
  endfacet
  facet normal 0.936827 -0.349792 0
    outer loop
      vertex 34.4825 36.6865 0
      vertex 20.7845 0 10
      vertex 20.7845 0 0
    endloop
  endfacet
  facet normal 0.936827 -0.349792 0
    outer loop
      vertex 34.4825 36.6865 0
      vertex 34.4825 36.6865 10
      vertex 20.7845 0 10
    endloop
  endfacet
endsolid OpenSCAD_Model
