solid OpenSCAD_Model
  facet normal 0 0 -1
    outer loop
      vertex 85.308 26.922 0
      vertex 72.22 27.939 0
      vertex 84.9223 31.4969 0
    endloop
  endfacet
  facet normal 0 0 -1
    outer loop
      vertex 66.2865 40.6027 0
      vertex 66.9437 49.3992 0
      vertex 71.6607 47.799 0
    endloop
  endfacet
  facet normal 0 0 -1
    outer loop
      vertex 84.7274 20.9014 0
      vertex 71.8809 23.8362 0
      vertex 85.308 26.922 0
    endloop
  endfacet
  facet normal 0 0 -1
    outer loop
      vertex 58.8696 43.7687 0
      vertex 61.574 50.385 0
      vertex 66.9437 49.3992 0
    endloop
  endfacet
  facet normal 0 0 -1
    outer loop
      vertex 66.2865 40.6027 0
      vertex 75.7252 45.5842 0
      vertex 70.7366 35.3262 0
    endloop
  endfacet
  facet normal 0 0 -1
    outer loop
      vertex 70.7366 35.3262 0
      vertex 75.7252 45.5842 0
      vertex 79.137 42.755 0
    endloop
  endfacet
  facet normal -0 0 -1
    outer loop
      vertex 75.7252 45.5842 0
      vertex 66.2865 40.6027 0
      vertex 71.6607 47.799 0
    endloop
  endfacet
  facet normal -0 0 -1
    outer loop
      vertex 81.8368 39.4134 0
      vertex 70.7366 35.3262 0
      vertex 79.137 42.755 0
    endloop
  endfacet
  facet normal 0 0 -1
    outer loop
      vertex 72.22 27.939 0
      vertex 70.7366 35.3262 0
      vertex 83.7652 35.6607 0
    endloop
  endfacet
  facet normal -0 0 -1
    outer loop
      vertex 84.9223 31.4969 0
      vertex 72.22 27.939 0
      vertex 83.7652 35.6607 0
    endloop
  endfacet
  facet normal 0 0 -1
    outer loop
      vertex 58.8696 43.7687 0
      vertex 55.1742 55.9027 0
      vertex 61.574 50.385 0
    endloop
  endfacet
  facet normal 0 0 -1
    outer loop
      vertex 70.8637 20.276 0
      vertex 82.9855 15.5885 0
      vertex 80.0824 10.9834 0
    endloop
  endfacet
  facet normal 0 0 -1
    outer loop
      vertex 76.018 7.086 0
      vertex 69.1684 17.2582 0
      vertex 80.0824 10.9834 0
    endloop
  endfacet
  facet normal 0 0 -1
    outer loop
      vertex 63.6799 12.8545 0
      vertex 70.9194 3.98587 0
      vertex 64.9137 1.7715 0
    endloop
  endfacet
  facet normal 0 0 -1
    outer loop
      vertex 46.113 85.173 0
      vertex 46.113 95.548 0
      vertex 50.8343 84.9653 0
    endloop
  endfacet
  facet normal 0 0 -1
    outer loop
      vertex 66.728 70.796 0
      vertex 66.3974 74.386 0
      vertex 79.748 72.356 0
    endloop
  endfacet
  facet normal 0 0 -1
    outer loop
      vertex 66.408 67.022 0
      vertex 78.5612 64.5572 0
      vertex 77.0778 61.1665 0
    endloop
  endfacet
  facet normal 0 0 -1
    outer loop
      vertex 66.3974 74.386 0
      vertex 77.6458 82.5025 0
      vertex 79.748 72.356 0
    endloop
  endfacet
  facet normal 0 0 -1
    outer loop
      vertex 65.448 63.7692 0
      vertex 66.408 67.022 0
      vertex 77.0778 61.1665 0
    endloop
  endfacet
  facet normal 0 0 -1
    outer loop
      vertex 77.6458 82.5025 0
      vertex 65.4055 77.425 0
      vertex 63.7524 79.913 0
    endloop
  endfacet
  facet normal -0 0 -1
    outer loop
      vertex 60.8283 94.0985 0
      vertex 50.8343 84.9653 0
      vertex 46.113 95.548 0
    endloop
  endfacet
  facet normal 0 0 -1
    outer loop
      vertex 60.8283 94.0985 0
      vertex 54.9622 84.3422 0
      vertex 50.8343 84.9653 0
    endloop
  endfacet
  facet normal 0 0 -1
    outer loop
      vertex 61.438 81.85 0
      vertex 58.4968 83.3038 0
      vertex 60.8283 94.0985 0
    endloop
  endfacet
  facet normal 0 0 -1
    outer loop
      vertex 24.345 54.928 0
      vertex 11.393 95.548 0
      vertex 24.345 85.173 0
    endloop
  endfacet
  facet normal 0 0 -1
    outer loop
      vertex 11.393 95.548 0
      vertex 24.345 54.928 0
      vertex 24.345 44.824 0
    endloop
  endfacet
  facet normal -0 0 -1
    outer loop
      vertex 58.0009 0.442871 0
      vertex 50.181 0 0
      vertex 55.0339 10.6505 0
    endloop
  endfacet
  facet normal 0 0 -1
    outer loop
      vertex 50.181 0 0
      vertex 24.345 10.375 0
      vertex 49.503 10.375 0
    endloop
  endfacet
  facet normal -0 0 -1
    outer loop
      vertex 24.345 44.824 0
      vertex 11.393 0 0
      vertex 11.393 95.548 0
    endloop
  endfacet
  facet normal 0 0 -1
    outer loop
      vertex 24.345 85.173 0
      vertex 11.393 95.548 0
      vertex 46.113 95.548 0
    endloop
  endfacet
  facet normal 0 0 -1
    outer loop
      vertex 46.113 85.173 0
      vertex 24.345 85.173 0
      vertex 46.113 95.548 0
    endloop
  endfacet
  facet normal 0 0 -1
    outer loop
      vertex 60.8283 94.0985 0
      vertex 58.4968 83.3038 0
      vertex 54.9622 84.3422 0
    endloop
  endfacet
  facet normal -0 0 -1
    outer loop
      vertex 71.3392 89.75 0
      vertex 61.438 81.85 0
      vertex 60.8283 94.0985 0
    endloop
  endfacet
  facet normal 0 0 -1
    outer loop
      vertex 71.3392 89.75 0
      vertex 63.7524 79.913 0
      vertex 61.438 81.85 0
    endloop
  endfacet
  facet normal 0 -0 -1
    outer loop
      vertex 71.3392 89.75 0
      vertex 77.6458 82.5025 0
      vertex 63.7524 79.913 0
    endloop
  endfacet
  facet normal 0 0 -1
    outer loop
      vertex 65.4055 77.425 0
      vertex 77.6458 82.5025 0
      vertex 66.3974 74.386 0
    endloop
  endfacet
  facet normal -0 0 -1
    outer loop
      vertex 79.4513 68.287 0
      vertex 66.408 67.022 0
      vertex 66.728 70.796 0
    endloop
  endfacet
  facet normal 0 0 -1
    outer loop
      vertex 79.4513 68.287 0
      vertex 66.728 70.796 0
      vertex 79.748 72.356 0
    endloop
  endfacet
  facet normal 0 0 -1
    outer loop
      vertex 79.4513 68.287 0
      vertex 78.5612 64.5572 0
      vertex 66.408 67.022 0
    endloop
  endfacet
  facet normal -0 0 -1
    outer loop
      vertex 75.001 58.115 0
      vertex 72.3817 55.4704 0
      vertex 65.448 63.7692 0
    endloop
  endfacet
  facet normal 0 0 -1
    outer loop
      vertex 75.001 58.115 0
      vertex 65.448 63.7692 0
      vertex 77.0778 61.1665 0
    endloop
  endfacet
  facet normal -0 0 -1
    outer loop
      vertex 72.3817 55.4704 0
      vertex 69.2707 53.3005 0
      vertex 63.848 61.0376 0
    endloop
  endfacet
  facet normal 0 0 -1
    outer loop
      vertex 72.3817 55.4704 0
      vertex 63.848 61.0376 0
      vertex 65.448 63.7692 0
    endloop
  endfacet
  facet normal 0 0 -1
    outer loop
      vertex 69.2707 53.3005 0
      vertex 61.608 58.827 0
      vertex 63.848 61.0376 0
    endloop
  endfacet
  facet normal -0 0 -1
    outer loop
      vertex 69.2707 53.3005 0
      vertex 65.6682 51.6054 0
      vertex 61.608 58.827 0
    endloop
  endfacet
  facet normal 0 -0 -1
    outer loop
      vertex 61.608 58.827 0
      vertex 65.6682 51.6054 0
      vertex 61.574 50.385 0
    endloop
  endfacet
  facet normal 0 0 -1
    outer loop
      vertex 58.7196 57.1212 0
      vertex 61.608 58.827 0
      vertex 61.574 50.385 0
    endloop
  endfacet
  facet normal 0 0 -1
    outer loop
      vertex 55.1742 55.9027 0
      vertex 58.7196 57.1212 0
      vertex 61.574 50.385 0
    endloop
  endfacet
  facet normal 0 0 -1
    outer loop
      vertex 46.113 54.928 0
      vertex 50.9721 55.1717 0
      vertex 48.486 44.824 0
    endloop
  endfacet
  facet normal 0 -0 -1
    outer loop
      vertex 50.9721 55.1717 0
      vertex 58.8696 43.7687 0
      vertex 48.486 44.824 0
    endloop
  endfacet
  facet normal 0 0 -1
    outer loop
      vertex 50.181 0 0
      vertex 49.503 10.375 0
      vertex 55.0339 10.6505 0
    endloop
  endfacet
  facet normal 0 0 -1
    outer loop
      vertex 24.345 44.824 0
      vertex 24.345 54.928 0
      vertex 46.113 54.928 0
    endloop
  endfacet
  facet normal 0 0 -1
    outer loop
      vertex 11.393 0 0
      vertex 24.345 10.375 0
      vertex 50.181 0 0
    endloop
  endfacet
  facet normal 0 0 -1
    outer loop
      vertex 11.393 0 0
      vertex 24.345 44.824 0
      vertex 24.345 10.375 0
    endloop
  endfacet
  facet normal 0 0 -1
    outer loop
      vertex 58.8696 43.7687 0
      vertex 50.9721 55.1717 0
      vertex 55.1742 55.9027 0
    endloop
  endfacet
  facet normal 0 0 -1
    outer loop
      vertex 48.486 44.824 0
      vertex 24.345 44.824 0
      vertex 46.113 54.928 0
    endloop
  endfacet
  facet normal 0 0 -1
    outer loop
      vertex 66.2865 40.6027 0
      vertex 58.8696 43.7687 0
      vertex 66.9437 49.3992 0
    endloop
  endfacet
  facet normal 0 -0 -1
    outer loop
      vertex 81.8368 39.4134 0
      vertex 83.7652 35.6607 0
      vertex 70.7366 35.3262 0
    endloop
  endfacet
  facet normal -0 0 -1
    outer loop
      vertex 85.308 26.922 0
      vertex 71.8809 23.8362 0
      vertex 72.22 27.939 0
    endloop
  endfacet
  facet normal 0 -0 -1
    outer loop
      vertex 71.8809 23.8362 0
      vertex 82.9855 15.5885 0
      vertex 70.8637 20.276 0
    endloop
  endfacet
  facet normal -0 0 -1
    outer loop
      vertex 84.7274 20.9014 0
      vertex 82.9855 15.5885 0
      vertex 71.8809 23.8362 0
    endloop
  endfacet
  facet normal 0 -0 -1
    outer loop
      vertex 70.8637 20.276 0
      vertex 80.0824 10.9834 0
      vertex 69.1684 17.2582 0
    endloop
  endfacet
  facet normal 0 0 -1
    outer loop
      vertex 76.018 7.086 0
      vertex 66.795 14.783 0
      vertex 69.1684 17.2582 0
    endloop
  endfacet
  facet normal 0 0 -1
    outer loop
      vertex 66.795 14.783 0
      vertex 76.018 7.086 0
      vertex 70.9194 3.98587 0
    endloop
  endfacet
  facet normal 0 0 -1
    outer loop
      vertex 63.6799 12.8545 0
      vertex 66.795 14.783 0
      vertex 70.9194 3.98587 0
    endloop
  endfacet
  facet normal 0 0 -1
    outer loop
      vertex 59.7595 11.477 0
      vertex 63.6799 12.8545 0
      vertex 64.9137 1.7715 0
    endloop
  endfacet
  facet normal 0 0 -1
    outer loop
      vertex 58.0009 0.442871 0
      vertex 59.7595 11.477 0
      vertex 64.9137 1.7715 0
    endloop
  endfacet
  facet normal 0 0 -1
    outer loop
      vertex 58.0009 0.442871 0
      vertex 55.0339 10.6505 0
      vertex 59.7595 11.477 0
    endloop
  endfacet
  facet normal 0 0 1
    outer loop
      vertex 84.9223 31.4969 20
      vertex 72.22 27.939 20
      vertex 85.308 26.922 20
    endloop
  endfacet
  facet normal 0 0 1
    outer loop
      vertex 71.6607 47.799 20
      vertex 66.9437 49.3992 20
      vertex 66.2865 40.6027 20
    endloop
  endfacet
  facet normal 0 0 1
    outer loop
      vertex 85.308 26.922 20
      vertex 71.8809 23.8362 20
      vertex 84.7274 20.9014 20
    endloop
  endfacet
  facet normal 0 0 1
    outer loop
      vertex 66.9437 49.3992 20
      vertex 61.574 50.385 20
      vertex 58.8696 43.7687 20
    endloop
  endfacet
  facet normal 0 -0 1
    outer loop
      vertex 70.7366 35.3262 20
      vertex 75.7252 45.5842 20
      vertex 66.2865 40.6027 20
    endloop
  endfacet
  facet normal 0 0 1
    outer loop
      vertex 79.137 42.755 20
      vertex 75.7252 45.5842 20
      vertex 70.7366 35.3262 20
    endloop
  endfacet
  facet normal 0 0 1
    outer loop
      vertex 71.6607 47.799 20
      vertex 66.2865 40.6027 20
      vertex 75.7252 45.5842 20
    endloop
  endfacet
  facet normal 0 0 1
    outer loop
      vertex 79.137 42.755 20
      vertex 70.7366 35.3262 20
      vertex 81.8368 39.4134 20
    endloop
  endfacet
  facet normal 0 0 1
    outer loop
      vertex 83.7652 35.6607 20
      vertex 70.7366 35.3262 20
      vertex 72.22 27.939 20
    endloop
  endfacet
  facet normal 0 0 1
    outer loop
      vertex 83.7652 35.6607 20
      vertex 72.22 27.939 20
      vertex 84.9223 31.4969 20
    endloop
  endfacet
  facet normal 0 0 1
    outer loop
      vertex 61.574 50.385 20
      vertex 55.1742 55.9027 20
      vertex 58.8696 43.7687 20
    endloop
  endfacet
  facet normal 0 -0 1
    outer loop
      vertex 80.0824 10.9834 20
      vertex 82.9855 15.5885 20
      vertex 70.8637 20.276 20
    endloop
  endfacet
  facet normal 0 0 1
    outer loop
      vertex 80.0824 10.9834 20
      vertex 69.1684 17.2582 20
      vertex 76.018 7.086 20
    endloop
  endfacet
  facet normal 0 -0 1
    outer loop
      vertex 64.9137 1.7715 20
      vertex 70.9194 3.98587 20
      vertex 63.6799 12.8545 20
    endloop
  endfacet
  facet normal 0 0 1
    outer loop
      vertex 50.8343 84.9653 20
      vertex 46.113 95.548 20
      vertex 46.113 85.173 20
    endloop
  endfacet
  facet normal 0 0 1
    outer loop
      vertex 79.748 72.356 20
      vertex 66.3974 74.386 20
      vertex 66.728 70.796 20
    endloop
  endfacet
  facet normal 0 -0 1
    outer loop
      vertex 77.0778 61.1665 20
      vertex 78.5612 64.5572 20
      vertex 66.408 67.022 20
    endloop
  endfacet
  facet normal 0 0 1
    outer loop
      vertex 79.748 72.356 20
      vertex 77.6458 82.5025 20
      vertex 66.3974 74.386 20
    endloop
  endfacet
  facet normal 0 0 1
    outer loop
      vertex 77.0778 61.1665 20
      vertex 66.408 67.022 20
      vertex 65.448 63.7692 20
    endloop
  endfacet
  facet normal -0 0 1
    outer loop
      vertex 63.7524 79.913 20
      vertex 65.4055 77.425 20
      vertex 77.6458 82.5025 20
    endloop
  endfacet
  facet normal 0 0 1
    outer loop
      vertex 46.113 95.548 20
      vertex 50.8343 84.9653 20
      vertex 60.8283 94.0985 20
    endloop
  endfacet
  facet normal -0 0 1
    outer loop
      vertex 50.8343 84.9653 20
      vertex 54.9622 84.3422 20
      vertex 60.8283 94.0985 20
    endloop
  endfacet
  facet normal 0 0 1
    outer loop
      vertex 60.8283 94.0985 20
      vertex 58.4968 83.3038 20
      vertex 61.438 81.85 20
    endloop
  endfacet
  facet normal 0 0 1
    outer loop
      vertex 24.345 85.173 20
      vertex 11.393 95.548 20
      vertex 24.345 54.928 20
    endloop
  endfacet
  facet normal 0 -0 1
    outer loop
      vertex 24.345 44.824 20
      vertex 24.345 54.928 20
      vertex 11.393 95.548 20
    endloop
  endfacet
  facet normal 0 0 1
    outer loop
      vertex 55.0339 10.6505 20
      vertex 50.181 0 20
      vertex 58.0009 0.442871 20
    endloop
  endfacet
  facet normal 0 0 1
    outer loop
      vertex 49.503 10.375 20
      vertex 24.345 10.375 20
      vertex 50.181 0 20
    endloop
  endfacet
  facet normal 0 0 1
    outer loop
      vertex 11.393 95.548 20
      vertex 11.393 0 20
      vertex 24.345 44.824 20
    endloop
  endfacet
  facet normal 0 0 1
    outer loop
      vertex 46.113 95.548 20
      vertex 11.393 95.548 20
      vertex 24.345 85.173 20
    endloop
  endfacet
  facet normal 0 0 1
    outer loop
      vertex 46.113 95.548 20
      vertex 24.345 85.173 20
      vertex 46.113 85.173 20
    endloop
  endfacet
  facet normal -0 0 1
    outer loop
      vertex 54.9622 84.3422 20
      vertex 58.4968 83.3038 20
      vertex 60.8283 94.0985 20
    endloop
  endfacet
  facet normal 0 0 1
    outer loop
      vertex 60.8283 94.0985 20
      vertex 61.438 81.85 20
      vertex 71.3392 89.75 20
    endloop
  endfacet
  facet normal -0 0 1
    outer loop
      vertex 61.438 81.85 20
      vertex 63.7524 79.913 20
      vertex 71.3392 89.75 20
    endloop
  endfacet
  facet normal 0 0 1
    outer loop
      vertex 63.7524 79.913 20
      vertex 77.6458 82.5025 20
      vertex 71.3392 89.75 20
    endloop
  endfacet
  facet normal 0 -0 1
    outer loop
      vertex 66.3974 74.386 20
      vertex 77.6458 82.5025 20
      vertex 65.4055 77.425 20
    endloop
  endfacet
  facet normal 0 0 1
    outer loop
      vertex 66.728 70.796 20
      vertex 66.408 67.022 20
      vertex 79.4513 68.287 20
    endloop
  endfacet
  facet normal 0 0 1
    outer loop
      vertex 79.748 72.356 20
      vertex 66.728 70.796 20
      vertex 79.4513 68.287 20
    endloop
  endfacet
  facet normal -0 0 1
    outer loop
      vertex 66.408 67.022 20
      vertex 78.5612 64.5572 20
      vertex 79.4513 68.287 20
    endloop
  endfacet
  facet normal 0 0 1
    outer loop
      vertex 65.448 63.7692 20
      vertex 72.3817 55.4704 20
      vertex 75.001 58.115 20
    endloop
  endfacet
  facet normal 0 0 1
    outer loop
      vertex 77.0778 61.1665 20
      vertex 65.448 63.7692 20
      vertex 75.001 58.115 20
    endloop
  endfacet
  facet normal 0 0 1
    outer loop
      vertex 63.848 61.0376 20
      vertex 69.2707 53.3005 20
      vertex 72.3817 55.4704 20
    endloop
  endfacet
  facet normal 0 0 1
    outer loop
      vertex 65.448 63.7692 20
      vertex 63.848 61.0376 20
      vertex 72.3817 55.4704 20
    endloop
  endfacet
  facet normal 0 0 1
    outer loop
      vertex 63.848 61.0376 20
      vertex 61.608 58.827 20
      vertex 69.2707 53.3005 20
    endloop
  endfacet
  facet normal 0 0 1
    outer loop
      vertex 61.608 58.827 20
      vertex 65.6682 51.6054 20
      vertex 69.2707 53.3005 20
    endloop
  endfacet
  facet normal 0 0 1
    outer loop
      vertex 61.574 50.385 20
      vertex 65.6682 51.6054 20
      vertex 61.608 58.827 20
    endloop
  endfacet
  facet normal 0 -0 1
    outer loop
      vertex 61.574 50.385 20
      vertex 61.608 58.827 20
      vertex 58.7196 57.1212 20
    endloop
  endfacet
  facet normal 0 0 1
    outer loop
      vertex 61.574 50.385 20
      vertex 58.7196 57.1212 20
      vertex 55.1742 55.9027 20
    endloop
  endfacet
  facet normal 0 -0 1
    outer loop
      vertex 48.486 44.824 20
      vertex 50.9721 55.1717 20
      vertex 46.113 54.928 20
    endloop
  endfacet
  facet normal -0 0 1
    outer loop
      vertex 48.486 44.824 20
      vertex 58.8696 43.7687 20
      vertex 50.9721 55.1717 20
    endloop
  endfacet
  facet normal 0 0 1
    outer loop
      vertex 55.0339 10.6505 20
      vertex 49.503 10.375 20
      vertex 50.181 0 20
    endloop
  endfacet
  facet normal 0 0 1
    outer loop
      vertex 46.113 54.928 20
      vertex 24.345 54.928 20
      vertex 24.345 44.824 20
    endloop
  endfacet
  facet normal 0 0 1
    outer loop
      vertex 50.181 0 20
      vertex 24.345 10.375 20
      vertex 11.393 0 20
    endloop
  endfacet
  facet normal 0 -0 1
    outer loop
      vertex 24.345 10.375 20
      vertex 24.345 44.824 20
      vertex 11.393 0 20
    endloop
  endfacet
  facet normal 0 0 1
    outer loop
      vertex 55.1742 55.9027 20
      vertex 50.9721 55.1717 20
      vertex 58.8696 43.7687 20
    endloop
  endfacet
  facet normal 0 0 1
    outer loop
      vertex 46.113 54.928 20
      vertex 24.345 44.824 20
      vertex 48.486 44.824 20
    endloop
  endfacet
  facet normal 0 0 1
    outer loop
      vertex 66.9437 49.3992 20
      vertex 58.8696 43.7687 20
      vertex 66.2865 40.6027 20
    endloop
  endfacet
  facet normal 0 0 1
    outer loop
      vertex 70.7366 35.3262 20
      vertex 83.7652 35.6607 20
      vertex 81.8368 39.4134 20
    endloop
  endfacet
  facet normal 0 0 1
    outer loop
      vertex 72.22 27.939 20
      vertex 71.8809 23.8362 20
      vertex 85.308 26.922 20
    endloop
  endfacet
  facet normal -0 0 1
    outer loop
      vertex 70.8637 20.276 20
      vertex 82.9855 15.5885 20
      vertex 71.8809 23.8362 20
    endloop
  endfacet
  facet normal 0 0 1
    outer loop
      vertex 71.8809 23.8362 20
      vertex 82.9855 15.5885 20
      vertex 84.7274 20.9014 20
    endloop
  endfacet
  facet normal -0 0 1
    outer loop
      vertex 69.1684 17.2582 20
      vertex 80.0824 10.9834 20
      vertex 70.8637 20.276 20
    endloop
  endfacet
  facet normal 0 0 1
    outer loop
      vertex 69.1684 17.2582 20
      vertex 66.795 14.783 20
      vertex 76.018 7.086 20
    endloop
  endfacet
  facet normal 0 -0 1
    outer loop
      vertex 70.9194 3.98587 20
      vertex 76.018 7.086 20
      vertex 66.795 14.783 20
    endloop
  endfacet
  facet normal 0 0 1
    outer loop
      vertex 70.9194 3.98587 20
      vertex 66.795 14.783 20
      vertex 63.6799 12.8545 20
    endloop
  endfacet
  facet normal 0 0 1
    outer loop
      vertex 64.9137 1.7715 20
      vertex 63.6799 12.8545 20
      vertex 59.7595 11.477 20
    endloop
  endfacet
  facet normal 0 0 1
    outer loop
      vertex 64.9137 1.7715 20
      vertex 59.7595 11.477 20
      vertex 58.0009 0.442871 20
    endloop
  endfacet
  facet normal 0 0 1
    outer loop
      vertex 59.7595 11.477 20
      vertex 55.0339 10.6505 20
      vertex 58.0009 0.442871 20
    endloop
  endfacet
  facet normal 0.188744 -0.982026 0
    outer loop
      vertex 64.9137 1.7715 0
      vertex 58.0009 0.442871 20
      vertex 58.0009 0.442871 0
    endloop
  endfacet
  facet normal 0.188744 -0.982026 0
    outer loop
      vertex 64.9137 1.7715 0
      vertex 64.9137 1.7715 20
      vertex 58.0009 0.442871 20
    endloop
  endfacet
  facet normal 0.345945 -0.938255 0
    outer loop
      vertex 70.9194 3.98587 0
      vertex 64.9137 1.7715 20
      vertex 64.9137 1.7715 0
    endloop
  endfacet
  facet normal 0.345945 -0.938255 0
    outer loop
      vertex 70.9194 3.98587 0
      vertex 70.9194 3.98587 20
      vertex 64.9137 1.7715 20
    endloop
  endfacet
  facet normal 0.519535 -0.854449 0
    outer loop
      vertex 76.018 7.086 0
      vertex 70.9194 3.98587 20
      vertex 70.9194 3.98587 0
    endloop
  endfacet
  facet normal 0.519535 -0.854449 0
    outer loop
      vertex 76.018 7.086 0
      vertex 76.018 7.086 20
      vertex 70.9194 3.98587 20
    endloop
  endfacet
  facet normal 0.692123 -0.72178 0
    outer loop
      vertex 80.0824 10.9834 0
      vertex 76.018 7.086 20
      vertex 76.018 7.086 0
    endloop
  endfacet
  facet normal 0.692123 -0.72178 0
    outer loop
      vertex 80.0824 10.9834 0
      vertex 80.0824 10.9834 20
      vertex 76.018 7.086 20
    endloop
  endfacet
  facet normal 0.845935 -0.533286 0
    outer loop
      vertex 82.9855 15.5885 0
      vertex 80.0824 10.9834 20
      vertex 80.0824 10.9834 0
    endloop
  endfacet
  facet normal 0.845935 -0.533286 0
    outer loop
      vertex 82.9855 15.5885 0
      vertex 82.9855 15.5885 20
      vertex 80.0824 10.9834 20
    endloop
  endfacet
  facet normal 0.950231 -0.311545 0
    outer loop
      vertex 84.7274 20.9014 0
      vertex 82.9855 15.5885 20
      vertex 82.9855 15.5885 0
    endloop
  endfacet
  facet normal 0.950231 -0.311545 0
    outer loop
      vertex 84.7274 20.9014 0
      vertex 84.7274 20.9014 20
      vertex 82.9855 15.5885 20
    endloop
  endfacet
  facet normal 0.995382 -0.0959903 0
    outer loop
      vertex 85.308 26.922 0
      vertex 84.7274 20.9014 20
      vertex 84.7274 20.9014 0
    endloop
  endfacet
  facet normal 0.995382 -0.0959903 0
    outer loop
      vertex 85.308 26.922 0
      vertex 85.308 26.922 20
      vertex 84.7274 20.9014 20
    endloop
  endfacet
  facet normal 0.996465 0.0840098 0
    outer loop
      vertex 84.9223 31.4969 0
      vertex 85.308 26.922 20
      vertex 85.308 26.922 0
    endloop
  endfacet
  facet normal 0.996465 0.0840098 -0
    outer loop
      vertex 84.9223 31.4969 0
      vertex 84.9223 31.4969 20
      vertex 85.308 26.922 20
    endloop
  endfacet
  facet normal 0.963489 0.267749 0
    outer loop
      vertex 83.7652 35.6607 0
      vertex 84.9223 31.4969 20
      vertex 84.9223 31.4969 0
    endloop
  endfacet
  facet normal 0.963489 0.267749 -0
    outer loop
      vertex 83.7652 35.6607 0
      vertex 83.7652 35.6607 20
      vertex 84.9223 31.4969 20
    endloop
  endfacet
  facet normal 0.889438 0.457056 0
    outer loop
      vertex 81.8368 39.4134 0
      vertex 83.7652 35.6607 20
      vertex 83.7652 35.6607 0
    endloop
  endfacet
  facet normal 0.889438 0.457056 -0
    outer loop
      vertex 81.8368 39.4134 0
      vertex 81.8368 39.4134 20
      vertex 83.7652 35.6607 20
    endloop
  endfacet
  facet normal 0.777848 0.628452 0
    outer loop
      vertex 79.137 42.755 0
      vertex 81.8368 39.4134 20
      vertex 81.8368 39.4134 0
    endloop
  endfacet
  facet normal 0.777848 0.628452 -0
    outer loop
      vertex 79.137 42.755 0
      vertex 79.137 42.755 20
      vertex 81.8368 39.4134 20
    endloop
  endfacet
  facet normal 0.638323 0.769769 0
    outer loop
      vertex 75.7252 45.5842 0
      vertex 79.137 42.755 20
      vertex 79.137 42.755 0
    endloop
  endfacet
  facet normal 0.638323 0.769769 -0
    outer loop
      vertex 75.7252 45.5842 0
      vertex 75.7252 45.5842 20
      vertex 79.137 42.755 20
    endloop
  endfacet
  facet normal 0.478486 0.878095 0
    outer loop
      vertex 71.6607 47.799 0
      vertex 75.7252 45.5842 20
      vertex 75.7252 45.5842 0
    endloop
  endfacet
  facet normal 0.478486 0.878095 -0
    outer loop
      vertex 71.6607 47.799 0
      vertex 71.6607 47.799 20
      vertex 75.7252 45.5842 20
    endloop
  endfacet
  facet normal 0.321258 0.946992 0
    outer loop
      vertex 66.9437 49.3992 0
      vertex 71.6607 47.799 20
      vertex 71.6607 47.799 0
    endloop
  endfacet
  facet normal 0.321258 0.946992 -0
    outer loop
      vertex 66.9437 49.3992 0
      vertex 66.9437 49.3992 20
      vertex 71.6607 47.799 20
    endloop
  endfacet
  facet normal 0.180568 0.983563 0
    outer loop
      vertex 61.574 50.385 0
      vertex 66.9437 49.3992 20
      vertex 66.9437 49.3992 0
    endloop
  endfacet
  facet normal 0.180568 0.983563 -0
    outer loop
      vertex 61.574 50.385 0
      vertex 61.574 50.385 20
      vertex 66.9437 49.3992 20
    endloop
  endfacet
  facet normal 0.28566 -0.958331 0
    outer loop
      vertex 65.6682 51.6054 0
      vertex 61.574 50.385 20
      vertex 61.574 50.385 0
    endloop
  endfacet
  facet normal 0.28566 -0.958331 0
    outer loop
      vertex 65.6682 51.6054 0
      vertex 65.6682 51.6054 20
      vertex 61.574 50.385 20
    endloop
  endfacet
  facet normal 0.425757 -0.904837 0
    outer loop
      vertex 69.2707 53.3005 0
      vertex 65.6682 51.6054 20
      vertex 65.6682 51.6054 0
    endloop
  endfacet
  facet normal 0.425757 -0.904837 0
    outer loop
      vertex 69.2707 53.3005 0
      vertex 69.2707 53.3005 20
      vertex 65.6682 51.6054 20
    endloop
  endfacet
  facet normal 0.572081 -0.820197 0
    outer loop
      vertex 72.3817 55.4704 0
      vertex 69.2707 53.3005 20
      vertex 69.2707 53.3005 0
    endloop
  endfacet
  facet normal 0.572081 -0.820197 0
    outer loop
      vertex 72.3817 55.4704 0
      vertex 72.3817 55.4704 20
      vertex 69.2707 53.3005 20
    endloop
  endfacet
  facet normal 0.710497 -0.7037 0
    outer loop
      vertex 75.001 58.115 0
      vertex 72.3817 55.4704 20
      vertex 72.3817 55.4704 0
    endloop
  endfacet
  facet normal 0.710497 -0.7037 0
    outer loop
      vertex 75.001 58.115 0
      vertex 75.001 58.115 20
      vertex 72.3817 55.4704 20
    endloop
  endfacet
  facet normal 0.826702 -0.56264 0
    outer loop
      vertex 77.0778 61.1665 0
      vertex 75.001 58.115 20
      vertex 75.001 58.115 0
    endloop
  endfacet
  facet normal 0.826702 -0.56264 0
    outer loop
      vertex 77.0778 61.1665 0
      vertex 77.0778 61.1665 20
      vertex 75.001 58.115 20
    endloop
  endfacet
  facet normal 0.91616 -0.400812 0
    outer loop
      vertex 78.5612 64.5572 0
      vertex 77.0778 61.1665 20
      vertex 77.0778 61.1665 0
    endloop
  endfacet
  facet normal 0.91616 -0.400812 0
    outer loop
      vertex 78.5612 64.5572 0
      vertex 78.5612 64.5572 20
      vertex 77.0778 61.1665 20
    endloop
  endfacet
  facet normal 0.972685 -0.232127 0
    outer loop
      vertex 79.4513 68.287 0
      vertex 78.5612 64.5572 20
      vertex 78.5612 64.5572 0
    endloop
  endfacet
  facet normal 0.972685 -0.232127 0
    outer loop
      vertex 79.4513 68.287 0
      vertex 79.4513 68.287 20
      vertex 78.5612 64.5572 20
    endloop
  endfacet
  facet normal 0.997352 -0.0727241 0
    outer loop
      vertex 79.748 72.356 0
      vertex 79.4513 68.287 20
      vertex 79.4513 68.287 0
    endloop
  endfacet
  facet normal 0.997352 -0.0727241 0
    outer loop
      vertex 79.748 72.356 0
      vertex 79.748 72.356 20
      vertex 79.4513 68.287 20
    endloop
  endfacet
  facet normal 0.979204 0.202876 0
    outer loop
      vertex 77.6458 82.5025 0
      vertex 79.748 72.356 20
      vertex 79.748 72.356 0
    endloop
  endfacet
  facet normal 0.979204 0.202876 -0
    outer loop
      vertex 77.6458 82.5025 0
      vertex 77.6458 82.5025 20
      vertex 79.748 72.356 20
    endloop
  endfacet
  facet normal 0.754377 0.656441 0
    outer loop
      vertex 71.3392 89.75 0
      vertex 77.6458 82.5025 20
      vertex 77.6458 82.5025 0
    endloop
  endfacet
  facet normal 0.754377 0.656441 -0
    outer loop
      vertex 71.3392 89.75 0
      vertex 71.3392 89.75 20
      vertex 77.6458 82.5025 20
    endloop
  endfacet
  facet normal 0.382289 0.924043 0
    outer loop
      vertex 60.8283 94.0985 0
      vertex 71.3392 89.75 20
      vertex 71.3392 89.75 0
    endloop
  endfacet
  facet normal 0.382289 0.924043 -0
    outer loop
      vertex 60.8283 94.0985 0
      vertex 60.8283 94.0985 20
      vertex 71.3392 89.75 20
    endloop
  endfacet
  facet normal 0.0980285 0.995184 0
    outer loop
      vertex 46.113 95.548 0
      vertex 60.8283 94.0985 20
      vertex 60.8283 94.0985 0
    endloop
  endfacet
  facet normal 0.0980285 0.995184 -0
    outer loop
      vertex 46.113 95.548 0
      vertex 46.113 95.548 20
      vertex 60.8283 94.0985 20
    endloop
  endfacet
  facet normal 0 1 0
    outer loop
      vertex 11.393 95.548 0
      vertex 46.113 95.548 20
      vertex 46.113 95.548 0
    endloop
  endfacet
  facet normal 0 1 0
    outer loop
      vertex 11.393 95.548 0
      vertex 11.393 95.548 20
      vertex 46.113 95.548 20
    endloop
  endfacet
  facet normal -1 0 0
    outer loop
      vertex 11.393 0 0
      vertex 11.393 95.548 20
      vertex 11.393 95.548 0
    endloop
  endfacet
  facet normal -1 0 0
    outer loop
      vertex 11.393 0 0
      vertex 11.393 0 20
      vertex 11.393 95.548 20
    endloop
  endfacet
  facet normal 0 -1 0
    outer loop
      vertex 50.181 0 0
      vertex 11.393 0 20
      vertex 11.393 0 0
    endloop
  endfacet
  facet normal 0 -1 0
    outer loop
      vertex 50.181 0 0
      vertex 50.181 0 20
      vertex 11.393 0 20
    endloop
  endfacet
  facet normal 0.0565432 -0.9984 0
    outer loop
      vertex 58.0009 0.442871 0
      vertex 50.181 0 20
      vertex 50.181 0 0
    endloop
  endfacet
  facet normal 0.0565432 -0.9984 0
    outer loop
      vertex 58.0009 0.442871 0
      vertex 58.0009 0.442871 20
      vertex 50.181 0 20
    endloop
  endfacet
  facet normal 1 0 -0
    outer loop
      vertex 24.345 85.173 0
      vertex 24.345 85.173 20
      vertex 24.345 54.928 0
    endloop
  endfacet
  facet normal 1 -0 0
    outer loop
      vertex 24.345 54.928 20
      vertex 24.345 54.928 0
      vertex 24.345 85.173 20
    endloop
  endfacet
  facet normal 0 -1 0
    outer loop
      vertex 46.113 85.173 0
      vertex 46.113 85.173 20
      vertex 24.345 85.173 0
    endloop
  endfacet
  facet normal 0 -1 0
    outer loop
      vertex 24.345 85.173 20
      vertex 24.345 85.173 0
      vertex 46.113 85.173 20
    endloop
  endfacet
  facet normal -0.0439496 -0.999034 0
    outer loop
      vertex 50.8343 84.9653 0
      vertex 50.8343 84.9653 20
      vertex 46.113 85.173 0
    endloop
  endfacet
  facet normal -0.0439496 -0.999034 -0
    outer loop
      vertex 46.113 85.173 20
      vertex 46.113 85.173 0
      vertex 50.8343 84.9653 20
    endloop
  endfacet
  facet normal -0.149258 -0.988798 0
    outer loop
      vertex 54.9622 84.3422 0
      vertex 54.9622 84.3422 20
      vertex 50.8343 84.9653 0
    endloop
  endfacet
  facet normal -0.149258 -0.988798 -0
    outer loop
      vertex 50.8343 84.9653 20
      vertex 50.8343 84.9653 0
      vertex 54.9622 84.3422 20
    endloop
  endfacet
  facet normal -0.281869 -0.959453 0
    outer loop
      vertex 58.4968 83.3038 0
      vertex 58.4968 83.3038 20
      vertex 54.9622 84.3422 0
    endloop
  endfacet
  facet normal -0.281869 -0.959453 -0
    outer loop
      vertex 54.9622 84.3422 20
      vertex 54.9622 84.3422 0
      vertex 58.4968 83.3038 20
    endloop
  endfacet
  facet normal -0.443112 -0.896466 0
    outer loop
      vertex 61.438 81.85 0
      vertex 61.438 81.85 20
      vertex 58.4968 83.3038 0
    endloop
  endfacet
  facet normal -0.443112 -0.896466 -0
    outer loop
      vertex 58.4968 83.3038 20
      vertex 58.4968 83.3038 0
      vertex 61.438 81.85 20
    endloop
  endfacet
  facet normal -0.641813 -0.766862 0
    outer loop
      vertex 63.7524 79.913 0
      vertex 63.7524 79.913 20
      vertex 61.438 81.85 0
    endloop
  endfacet
  facet normal -0.641813 -0.766862 -0
    outer loop
      vertex 61.438 81.85 20
      vertex 61.438 81.85 0
      vertex 63.7524 79.913 20
    endloop
  endfacet
  facet normal -0.832909 -0.553409 0
    outer loop
      vertex 65.4055 77.425 0
      vertex 65.4055 77.425 20
      vertex 63.7524 79.913 0
    endloop
  endfacet
  facet normal -0.832909 -0.553409 -0
    outer loop
      vertex 63.7524 79.913 20
      vertex 63.7524 79.913 0
      vertex 65.4055 77.425 20
    endloop
  endfacet
  facet normal -0.950645 -0.310281 0
    outer loop
      vertex 66.3974 74.386 0
      vertex 66.3974 74.386 20
      vertex 65.4055 77.425 0
    endloop
  endfacet
  facet normal -0.950645 -0.310281 -0
    outer loop
      vertex 65.4055 77.425 20
      vertex 65.4055 77.425 0
      vertex 66.3974 74.386 20
    endloop
  endfacet
  facet normal -0.995787 -0.0917011 0
    outer loop
      vertex 66.728 70.796 0
      vertex 66.728 70.796 20
      vertex 66.3974 74.386 0
    endloop
  endfacet
  facet normal -0.995787 -0.0917011 -0
    outer loop
      vertex 66.3974 74.386 20
      vertex 66.3974 74.386 0
      vertex 66.728 70.796 20
    endloop
  endfacet
  facet normal -0.996425 0.0844875 0
    outer loop
      vertex 66.408 67.022 0
      vertex 66.408 67.022 20
      vertex 66.728 70.796 0
    endloop
  endfacet
  facet normal -0.996425 0.0844875 0
    outer loop
      vertex 66.728 70.796 20
      vertex 66.728 70.796 0
      vertex 66.408 67.022 20
    endloop
  endfacet
  facet normal -0.959102 0.28306 0
    outer loop
      vertex 65.448 63.7692 0
      vertex 65.448 63.7692 20
      vertex 66.408 67.022 0
    endloop
  endfacet
  facet normal -0.959102 0.28306 0
    outer loop
      vertex 66.408 67.022 20
      vertex 66.408 67.022 0
      vertex 65.448 63.7692 20
    endloop
  endfacet
  facet normal -0.862875 0.505418 0
    outer loop
      vertex 63.848 61.0376 0
      vertex 63.848 61.0376 20
      vertex 65.448 63.7692 0
    endloop
  endfacet
  facet normal -0.862875 0.505418 0
    outer loop
      vertex 65.448 63.7692 20
      vertex 65.448 63.7692 0
      vertex 63.848 61.0376 20
    endloop
  endfacet
  facet normal -0.70242 0.711762 0
    outer loop
      vertex 61.608 58.827 0
      vertex 61.608 58.827 20
      vertex 63.848 61.0376 0
    endloop
  endfacet
  facet normal -0.70242 0.711762 0
    outer loop
      vertex 63.848 61.0376 20
      vertex 63.848 61.0376 0
      vertex 61.608 58.827 20
    endloop
  endfacet
  facet normal -0.508512 0.861055 0
    outer loop
      vertex 58.7196 57.1212 0
      vertex 58.7196 57.1212 20
      vertex 61.608 58.827 0
    endloop
  endfacet
  facet normal -0.508512 0.861055 0
    outer loop
      vertex 61.608 58.827 20
      vertex 61.608 58.827 0
      vertex 58.7196 57.1212 20
    endloop
  endfacet
  facet normal -0.325025 0.945706 0
    outer loop
      vertex 55.1742 55.9027 0
      vertex 55.1742 55.9027 20
      vertex 58.7196 57.1212 0
    endloop
  endfacet
  facet normal -0.325025 0.945706 0
    outer loop
      vertex 58.7196 57.1212 20
      vertex 58.7196 57.1212 0
      vertex 55.1742 55.9027 20
    endloop
  endfacet
  facet normal -0.171387 0.985204 0
    outer loop
      vertex 50.9721 55.1717 0
      vertex 50.9721 55.1717 20
      vertex 55.1742 55.9027 0
    endloop
  endfacet
  facet normal -0.171387 0.985204 0
    outer loop
      vertex 55.1742 55.9027 20
      vertex 55.1742 55.9027 0
      vertex 50.9721 55.1717 20
    endloop
  endfacet
  facet normal -0.0500904 0.998745 0
    outer loop
      vertex 46.113 54.928 0
      vertex 46.113 54.928 20
      vertex 50.9721 55.1717 0
    endloop
  endfacet
  facet normal -0.0500904 0.998745 0
    outer loop
      vertex 50.9721 55.1717 20
      vertex 50.9721 55.1717 0
      vertex 46.113 54.928 20
    endloop
  endfacet
  facet normal 0 1 0
    outer loop
      vertex 24.345 54.928 0
      vertex 24.345 54.928 20
      vertex 46.113 54.928 0
    endloop
  endfacet
  facet normal 0 1 0
    outer loop
      vertex 46.113 54.928 20
      vertex 46.113 54.928 0
      vertex 24.345 54.928 20
    endloop
  endfacet
  facet normal 1 0 -0
    outer loop
      vertex 24.345 44.824 0
      vertex 24.345 44.824 20
      vertex 24.345 10.375 0
    endloop
  endfacet
  facet normal 1 -0 0
    outer loop
      vertex 24.345 10.375 20
      vertex 24.345 10.375 0
      vertex 24.345 44.824 20
    endloop
  endfacet
  facet normal 0 -1 0
    outer loop
      vertex 48.486 44.824 0
      vertex 48.486 44.824 20
      vertex 24.345 44.824 0
    endloop
  endfacet
  facet normal 0 -1 0
    outer loop
      vertex 24.345 44.824 20
      vertex 24.345 44.824 0
      vertex 48.486 44.824 20
    endloop
  endfacet
  facet normal -0.101111 -0.994875 0
    outer loop
      vertex 58.8696 43.7687 0
      vertex 58.8696 43.7687 20
      vertex 48.486 44.824 0
    endloop
  endfacet
  facet normal -0.101111 -0.994875 -0
    outer loop
      vertex 48.486 44.824 20
      vertex 48.486 44.824 0
      vertex 58.8696 43.7687 20
    endloop
  endfacet
  facet normal -0.392591 -0.919713 0
    outer loop
      vertex 66.2865 40.6027 0
      vertex 66.2865 40.6027 20
      vertex 58.8696 43.7687 0
    endloop
  endfacet
  facet normal -0.392591 -0.919713 -0
    outer loop
      vertex 58.8696 43.7687 20
      vertex 58.8696 43.7687 0
      vertex 66.2865 40.6027 20
    endloop
  endfacet
  facet normal -0.76443 -0.644706 0
    outer loop
      vertex 70.7366 35.3262 0
      vertex 70.7366 35.3262 20
      vertex 66.2865 40.6027 0
    endloop
  endfacet
  facet normal -0.76443 -0.644706 -0
    outer loop
      vertex 66.2865 40.6027 20
      vertex 66.2865 40.6027 0
      vertex 70.7366 35.3262 20
    endloop
  endfacet
  facet normal -0.980428 -0.196877 0
    outer loop
      vertex 72.22 27.939 0
      vertex 72.22 27.939 20
      vertex 70.7366 35.3262 0
    endloop
  endfacet
  facet normal -0.980428 -0.196877 -0
    outer loop
      vertex 70.7366 35.3262 20
      vertex 70.7366 35.3262 0
      vertex 72.22 27.939 20
    endloop
  endfacet
  facet normal -0.996602 0.08237 0
    outer loop
      vertex 71.8809 23.8362 0
      vertex 71.8809 23.8362 20
      vertex 72.22 27.939 0
    endloop
  endfacet
  facet normal -0.996602 0.08237 0
    outer loop
      vertex 72.22 27.939 20
      vertex 72.22 27.939 0
      vertex 71.8809 23.8362 20
    endloop
  endfacet
  facet normal -0.961524 0.274721 0
    outer loop
      vertex 70.8637 20.276 0
      vertex 70.8637 20.276 20
      vertex 71.8809 23.8362 0
    endloop
  endfacet
  facet normal -0.961524 0.274721 0
    outer loop
      vertex 71.8809 23.8362 20
      vertex 71.8809 23.8362 0
      vertex 70.8637 20.276 20
    endloop
  endfacet
  facet normal -0.871849 0.489776 0
    outer loop
      vertex 69.1684 17.2582 0
      vertex 69.1684 17.2582 20
      vertex 70.8637 20.276 0
    endloop
  endfacet
  facet normal -0.871849 0.489776 0
    outer loop
      vertex 70.8637 20.276 20
      vertex 70.8637 20.276 0
      vertex 69.1684 17.2582 20
    endloop
  endfacet
  facet normal -0.721794 0.692108 0
    outer loop
      vertex 66.795 14.783 0
      vertex 66.795 14.783 20
      vertex 69.1684 17.2582 0
    endloop
  endfacet
  facet normal -0.721794 0.692108 0
    outer loop
      vertex 69.1684 17.2582 20
      vertex 69.1684 17.2582 0
      vertex 66.795 14.783 20
    endloop
  endfacet
  facet normal -0.526375 0.850252 0
    outer loop
      vertex 63.6799 12.8545 0
      vertex 63.6799 12.8545 20
      vertex 66.795 14.783 0
    endloop
  endfacet
  facet normal -0.526375 0.850252 0
    outer loop
      vertex 66.795 14.783 20
      vertex 66.795 14.783 0
      vertex 63.6799 12.8545 20
    endloop
  endfacet
  facet normal -0.331499 0.943455 0
    outer loop
      vertex 59.7595 11.477 0
      vertex 59.7595 11.477 20
      vertex 63.6799 12.8545 0
    endloop
  endfacet
  facet normal -0.331499 0.943455 0
    outer loop
      vertex 63.6799 12.8545 20
      vertex 63.6799 12.8545 0
      vertex 59.7595 11.477 20
    endloop
  endfacet
  facet normal -0.172283 0.985047 0
    outer loop
      vertex 55.0339 10.6505 0
      vertex 55.0339 10.6505 20
      vertex 59.7595 11.477 0
    endloop
  endfacet
  facet normal -0.172283 0.985047 0
    outer loop
      vertex 59.7595 11.477 20
      vertex 59.7595 11.477 0
      vertex 55.0339 10.6505 20
    endloop
  endfacet
  facet normal -0.0497494 0.998762 0
    outer loop
      vertex 49.503 10.375 0
      vertex 49.503 10.375 20
      vertex 55.0339 10.6505 0
    endloop
  endfacet
  facet normal -0.0497494 0.998762 0
    outer loop
      vertex 55.0339 10.6505 20
      vertex 55.0339 10.6505 0
      vertex 49.503 10.375 20
    endloop
  endfacet
  facet normal 0 1 0
    outer loop
      vertex 24.345 10.375 0
      vertex 24.345 10.375 20
      vertex 49.503 10.375 0
    endloop
  endfacet
  facet normal 0 1 0
    outer loop
      vertex 49.503 10.375 20
      vertex 49.503 10.375 0
      vertex 24.345 10.375 20
    endloop
  endfacet
endsolid OpenSCAD_Model
